<?xml version="1.0" standalone="no"?>
<!DOCTYPE svg PUBLIC "-//W3C//DTD SVG 20010904//EN"
 "http://www.w3.org/TR/2001/REC-SVG-20010904/DTD/svg10.dtd">
<svg version="1.0" xmlns="http://www.w3.org/2000/svg"
 width="98.000000pt" height="98.000000pt" viewBox="0 0 98.000000 98.000000"
 preserveAspectRatio="xMidYMid meet">
<metadata>
Created by potrace 1.11, written by Peter Selinger 2001-2013
</metadata>
<g transform="translate(0.000000,98.000000) scale(0.100000,-0.100000)"
fill="#000000" stroke="none">
<path d="M382 785 c-43 -45 -67 -89 -63 -114 1 -7 -2 -11 -6 -8 -5 3 -10 -3
-10 -14 -1 -12 3 -17 9 -13 7 5 8 2 3 -6 -14 -22 -16 -92 -3 -84 7 5 8 2 2 -7
-5 -8 -10 -25 -12 -37 -2 -17 1 -22 10 -16 10 6 10 5 2 -7 -6 -8 -12 -64 -13
-131 -2 -113 -1 -118 26 -160 39 -61 43 -64 104 -84 30 -11 56 -21 59 -24 3
-3 16 -6 29 -8 17 -3 21 0 16 10 -6 10 -5 11 5 1 8 -8 18 -9 25 -3 6 5 30 11
54 14 24 3 46 8 50 11 3 4 6 33 6 65 0 67 -4 70 -76 63 -57 -5 -81 -6 -99 -4
-19 2 -47 50 -45 79 1 12 -1 22 -4 22 -6 0 -12 56 -14 123 0 27 -4 36 -14 33
-7 -3 -13 -1 -13 3 0 5 5 11 11 13 5 2 12 12 14 23 2 11 4 20 5 20 0 0 3 21 5
48 5 52 18 82 47 111 20 18 28 20 106 16 50 -3 52 -1 61 42 12 56 -11 68 -131
68 l-103 -1 -43 -44z m63 4 c-8 -12 -35 -12 -35 1 0 5 7 6 17 3 12 -5 14 -3 8
7 -5 9 -4 11 4 6 6 -4 9 -12 6 -17z m105 11 c0 -5 -2 -10 -4 -10 -3 0 -8 5
-11 10 -3 6 -1 10 4 10 6 0 11 -4 11 -10z m77 -32 c-3 -8 -6 -5 -6 6 -1 11 2
17 5 13 3 -3 4 -12 1 -19z m-62 2 c3 -5 1 -10 -4 -10 -6 0 -11 5 -11 10 0 6 2
10 4 10 3 0 8 -4 11 -10z m55 -574 c0 -3 -4 -8 -10 -11 -5 -3 -10 -1 -10 4 0
6 5 11 10 11 6 0 10 -2 10 -4z"/>
</g>
</svg>
