<?xml version="1.0" encoding="utf-8"?>
<!-- Generator: Adobe Illustrator 16.0.0, SVG Export Plug-In . SVG Version: 6.00 Build 0)  -->
<!DOCTYPE svg PUBLIC "-//W3C//DTD SVG 1.1//EN" "http://www.w3.org/Graphics/SVG/1.1/DTD/svg11.dtd">
<svg version="1.1" id="Layer_1" xmlns="http://www.w3.org/2000/svg" xmlns:xlink="http://www.w3.org/1999/xlink" x="0px" y="0px"
	 width="196px" height="52px" viewBox="0 0 196 52" enable-background="new 0 0 196 52" xml:space="preserve">
<path d="M23.011,46.653c0-2.338,0-3.507-0.089-3.507c-0.089,0.152-0.267,0.955-0.622,2.365c-0.194,0.447-0.352,0.91-0.472,1.384
	c0.063,0.003,0.124,0.022,0.178,0.056c0.24-0.056,0.595-0.208,1.006-0.326V46.653z M191.588,45.512
	c-0.063-0.055-0.238,0-0.328,0.152c-0.008,0.453,0.031,0.904,0.116,1.35C191.514,46.524,191.584,46.02,191.588,45.512z
	 M195.057,33.061c-0.09,0.152-0.09,0.359,0,0.747C195.139,33.566,195.139,33.303,195.057,33.061z M192.443,37.377l-0.41,0.152
	c-0.09-0.09-0.09-0.09-0.178-0.09v-0.305h-0.164c0.033,0.547,0.228,1.069,0.561,1.502c0.031-0.424,0.091-0.844,0.178-1.26H192.443z
	 M188.325,41.604c0.172,0.012,0.341,0.042,0.506,0.09c-0.088,0.146-0.088,0.235-0.177,0.235
	C188.414,41.839,188.325,41.693,188.325,41.604z M182.854,49.393c-0.09,0,0,0.055,0.416,0.297c-0.088,0.09-0.088,0.09-0.178,0.063
	C182.988,49.65,182.907,49.528,182.854,49.393z M185.589,46.758c-1.423,0-2.278,0.18-2.366,0.691
	C183.723,47.331,184.495,47.123,185.589,46.758z M191.745,33.123l-0.267,0.449h-0.178c0.147,0.781,0.245,1.572,0.295,2.366
	C191.907,35.033,191.959,34.057,191.745,33.123z M192.662,29.705c-0.084-0.219-0.114-0.457-0.089-0.691
	c-0.541-0.141-1.097-0.211-1.655-0.207v0.387c0.032,0.027,0.068,0.046,0.109,0.057c0.039,0.011,0.082,0.013,0.123,0.006
	c0.088,0.242,0.088,0.388,0.15,0.449c0.119-0.236,0.268-0.458,0.444-0.656c0.069,0.006,0.132,0.038,0.178,0.09
	c0.103,0.264,0.265,0.5,0.472,0.691c0.035-0.033,0.078-0.06,0.125-0.075c0.045-0.016,0.094-0.021,0.143-0.015V29.705z
	 M182.532,40.116c-0.089,0-0.24-0.09-0.267,1.169C182.432,40.918,182.521,40.521,182.532,40.116z M183.216,38.857
	c0.476,0.012,0.951,0.051,1.423,0.117c0.45,0.016,0.891-0.132,1.244-0.414c-0.826,0-2.052-0.063-3.762,0
	c-0.004,0.184,0.027,0.366,0.089,0.539c0.339-0.051,0.674-0.121,1.006-0.207V38.857z M188.271,31.553
	c-0.063-0.539-0.117-1.203-0.207-2.075h-0.149c-0.089,0.505-0.205,1.162-0.294,2.151c-0.115,0.052-0.215,0.131-0.293,0.231
	c-0.077,0.101-0.13,0.218-0.152,0.343c0.159,0.063,0.329,0.093,0.499,0.09c0.329-0.063,0.507-0.27,0.597-0.691V31.553z
	 M187.23,28.965c-0.055,0-0.055,0-0.088,0.057C187.23,28.965,187.23,28.875,187.23,28.965z M185.993,28.965h-0.685
	c0.01,0.307,0.061,0.608,0.15,0.9C185.609,29.549,185.788,29.248,185.993,28.965z M186.759,31.961
	c-0.026-0.627-0.187-1.241-0.472-1.799c-0.15,0.585-0.448,1.121-0.862,1.557c-0.917,0-0.8-1.197-0.889-2.033
	c-0.056-0.063-0.056-0.063-0.144-0.063c-0.076,0.263-0.117,0.535-0.123,0.809c0.088,0.063,0.088,0.36,0,0.81
	c-0.105,0.315-0.194,0.637-0.268,0.962c0.746-0.063,1.662-0.09,2.736-0.242H186.759z M183.038,32.258v-0.449
	c-0.276-0.121-0.504-0.33-0.649-0.595c-0.104,0.358-0.146,0.733-0.123,1.106c0.246-0.045,0.494-0.066,0.744-0.063H183.038z
	 M183.777,28.848h-0.445c0.029,0.207,0.09,0.406,0.178,0.596C183.6,29.443,183.66,29.235,183.777,28.848z M173.318,48.59
	l0.033-0.297c-0.181-0.037-0.353-0.109-0.506-0.215c-0.089,0-0.089,0-0.178,0.063c0.089,0,0.178,0.152,0.239,0.539
	C173.035,48.615,173.176,48.585,173.318,48.59z M174.241,48.59c0-0.145,0-0.297-0.062-0.359c-0.646-0.496-1.332-0.937-2.052-1.314
	c0.104,0.239,0.183,0.49,0.231,0.748c0.093-0.002,0.182,0.027,0.257,0.08s0.131,0.129,0.161,0.217
	c0.174-0.045,0.356-0.02,0.512,0.071c0.154,0.091,0.268,0.239,0.316,0.413c0.156,0.098,0.326,0.168,0.506,0.207
	c0.089-0.063,0.089-0.063,0.15-0.063H174.241z M171.977,46.826c-0.142-0.281-0.357-0.519-0.625-0.684
	c-0.267-0.164-0.574-0.252-0.887-0.25c0.268,0.242,0.508,0.539,0.924,0.988C171.587,46.902,171.786,46.883,171.977,46.826z
	 M166.561,41.583l-0.09,0.056c0.084,0.124,0.193,0.229,0.321,0.305C166.881,41.881,166.792,41.791,166.561,41.583z M171.561,29.768
	v-0.297c-0.445,0-0.685,0.297-0.89,0.893c0.269-0.225,0.558-0.424,0.862-0.596H171.561z M169.337,31.297l0.149-0.359
	c-0.061,0-0.061,0-0.149,0.055c0-0.207-0.089-0.09-0.178,0.359c0.024-0.021,0.053-0.037,0.083-0.046
	C169.273,31.296,169.305,31.293,169.337,31.297z M169.159,31.352c-0.171,0.089-0.322,0.211-0.445,0.36
	C168.98,31.656,169.159,31.594,169.159,31.352z M163.003,40.822h-0.267c0.267,0.242,0.684,0.629,1.148,1.141
	C163.975,41.604,163.085,40.912,163.003,40.822z M168.152,30.758h-0.149c0.062,0.055,0.062,0.145,0.062,0.27
	C168.152,30.965,168.152,30.902,168.152,30.758z M165.547,35.758c-0.684,0-1.689,0.692-1.717,1.232
	c-0.004,0.039,0.002,0.078,0.018,0.115c0.016,0.036,0.041,0.068,0.071,0.092C164.493,36.754,165.036,36.273,165.547,35.758z
	 M167.032,32.646c0.235-0.38,0.524-0.724,0.854-1.023c0.063-0.142,0.092-0.296,0.09-0.45h-0.322
	c-0.186,0.248-0.334,0.521-0.445,0.81c-0.374,0.171-0.716,0.404-1.012,0.692c0.265-0.111,0.558-0.131,0.835-0.056V32.646z
	 M166.498,30.758c-0.01,0.06-0.042,0.113-0.089,0.152C166.498,30.91,166.498,30.819,166.498,30.758z M166.32,30.965h-0.239
	c-0.089,0.063-0.089,0.152-0.116,0.215C166.1,31.139,166.223,31.065,166.32,30.965z M165.902,31.324
	c-0.321,0.199-0.588,0.477-0.772,0.81C165.458,32.078,165.725,31.773,165.902,31.324z M159.829,40.435v-0.152
	c-0.951,0.513-1.368,0.935-1.45,1.321C158.831,41.176,159.316,40.785,159.829,40.435z M159.323,39.535h-0.144
	c-0.123,0.115-0.216,0.261-0.268,0.422c0.094-0.037,0.179-0.094,0.249-0.167C159.232,39.717,159.287,39.631,159.323,39.535z
	 M156.539,40.919c-0.08-0.567-0.08-1.142,0-1.708h-0.178c-0.12,0.633-0.12,1.283,0,1.916C156.45,41.07,156.45,40.98,156.539,40.919z
	 M154.645,39.75c-0.018,0.133,0.004,0.267,0.062,0.387C154.648,40.017,154.627,39.883,154.645,39.75z M157.38,29.478
	c0-0.54-0.089-0.844-0.239-0.844c-0.045,0.3-0.023,0.607,0.062,0.899c0.024-0.021,0.053-0.037,0.083-0.047
	C157.316,29.477,157.348,29.474,157.38,29.478z M158.357,29.92c0.179-3.458,0.233,0.899-0.238-0.353
	c-0.116,2.006-0.355-3.507-0.116-3.002c-0.241,1.979-0.241,3.982,0,5.962c0,0.091,0.088,0.152,0.144,0.242
	c0.127-0.945,0.207-1.896,0.24-2.85H158.357z M153.734,28.273c-0.09-0.234-0.09-0.297-0.15-0.297
	c-0.044,0.066-0.066,0.145-0.066,0.225s0.022,0.158,0.066,0.225c0-0.09,0.089-0.09,0.178-0.152H153.734z M154.678,24.864
	c-0.031,0.022-0.058,0.054-0.074,0.091c-0.015,0.037-0.021,0.077-0.015,0.117c-0.006-0.04,0-0.08,0.015-0.117
	C154.62,24.918,154.646,24.886,154.678,24.864z M156.963,30.792c0.305-0.804,0.355-1.685,0.143-2.519
	c-0.068-0.061-0.146-0.109-0.231-0.145c-0.124,0.916-0.146,1.845-0.062,2.767c0.088,0,0.088,0,0.15-0.09V30.792z M109.704,35.032
	h0.123c0.159-1.146,0.235-2.302,0.231-3.459C110.059,31.573,109.587,31.961,109.704,35.032z M113.083,29.312h0.205
	c0.089-0.124,0.062-0.395,0-0.782c-0.091,0.107-0.159,0.231-0.2,0.366c-0.042,0.134-0.055,0.276-0.039,0.416H113.083z
	 M111.805,38.359c-0.016-0.162-0.004-0.326,0.033-0.484C111.749,37.965,111.775,38.055,111.805,38.359z M114.41,43.604
	c-0.253,1.423-0.271,2.879-0.055,4.309c0.293,0,0.267,0.691,0.766-3.085c-0.116-0.298-0.145-0.657-0.321-1.349
	C114.66,43.479,114.523,43.521,114.41,43.604z M118.172,45.547l-0.383,0.09c-0.089,0.09-0.205,0.09-0.089,0.207
	c-0.489-0.094-0.993-0.082-1.478,0.035c-0.09,0.09-0.062,0.359,0,0.927c0.066,0.014,0.135,0.013,0.201-0.003
	s0.128-0.045,0.182-0.088c-0.117-0.27-0.15-0.477-0.062-0.566s1.067-0.125,3.14-0.359c-0.056-0.133-0.135-0.256-0.232-0.359
	C119.027,45.49,118.6,45.529,118.172,45.547z M124.902,28.197l0.09,1.736c0.115,0.09,0.205,0.09,0.32,0.18
	c-0.088,0.09-0.088,1.143,0.035,3.362h0.116c0.542-1.835,0.712-3.763,0.499-5.665C125.598,27.901,125.242,28.031,124.902,28.197z
	 M127.741,27.873c-0.054,1.225-0.179,2.074-0.232,2.572l0.205,0.09c0.089-0.09,0.089-0.27,0-0.691
	c0.304-0.162,0.584-0.363,0.834-0.602c0.118-0.014,0.238,0.004,0.347,0.052c0.109,0.048,0.205,0.122,0.276,0.218
	c0.071,0.133,0.116,0.277,0.131,0.428c0.015,0.148,0.001,0.301-0.042,0.444c-0.046,0.265-0.117,0.524-0.212,0.774
	c-0.356,1.439-0.8,3.66-1.423,6.564c-0.089,0.219-0.129,0.455-0.116,0.691c0.56-1.956,1.399-3.82,2.49-5.533
	c-0.179-1.045-0.444-2.697-0.772-4.884c-0.207-0.09-0.5-0.18-0.944-0.359c-0.267,0.09-0.479,0.09-0.568,0.214L127.741,27.873z
	 M125.409,43.07h0.116c0.205-0.586,0.305-1.205,0.293-1.826c-0.184,0.262-0.315,0.558-0.385,0.871
	C125.361,42.429,125.354,42.754,125.409,43.07z M127.331,38.608l0.062,0.478c0.055-0.297,0.116-0.567,0.116-0.657
	C127.509,38.519,127.42,38.519,127.331,38.608z M129.048,37.135c-0.917,2.428-1.368,3.867-1.334,4.344h0.417l0.684-2.904
	c0.115-0.529,0.263-1.049,0.445-1.557C129.171,37.135,129.171,37.135,129.048,37.135z M126.914,43.604
	c-0.507,0.863-0.534,1.646-0.089,2.213c0.384-1.043,0.545-2.155,0.472-3.266C127.083,42.863,126.951,43.225,126.914,43.604z
	 M130.053,37.668c0.09-0.09,0.383-0.09,0.801-0.09c-0.067-0.645-0.168-1.283-0.301-1.916
	C130.15,36.246,129.973,36.96,130.053,37.668z M130.498,41.022c0.281-0.556,0.51-1.138,0.684-1.736
	c0.039-0.362-0.035-0.728-0.211-1.044c-0.463,0.842-0.639,1.814-0.5,2.767L130.498,41.022z M140.574,30.342
	c0.105,0.918,0.136,1.844,0.089,2.768c-0.013,0.238,0.037,0.477,0.144,0.691c0.355-0.037,0.694-0.174,0.978-0.395
	c-0.089-0.691-0.533-2.074-0.562-2.572c0.164-0.967,0.125-1.957-0.115-2.906c-0.479,0.117-0.596,0.989-0.533,2.422V30.342z
	 M142.626,34.16v0.298h0.179c0-0.09,0.088-0.181,0.176-0.36c-0.117,0.063-0.25,0.093-0.383,0.09L142.626,34.16z M136.895,46.369
	l0.86-0.304c-0.226-0.166-0.474-0.296-0.737-0.388C136.928,45.795,136.955,46.065,136.895,46.369z M141.277,37.143
	c-0.03,0.641,0.011,1.283,0.123,1.916c0.162,0.006,0.324-0.024,0.473-0.09c0.506-0.782,0.445-1.439-0.089-1.916
	C141.611,37.045,141.439,37.076,141.277,37.143z M138.762,45.256c0.047,0.006,0.096,0.001,0.143-0.015
	c0.046-0.015,0.089-0.041,0.123-0.075c0-0.09,0-0.09-0.116-0.18C138.823,45.076,138.85,45.166,138.762,45.256z M141.497,39.923
	c0.089,0,0.089,0,0.178-0.09c-0.123-0.091-0.123-0.181-0.151-0.298c-0.049,0.125-0.049,0.264,0,0.388H141.497z M142.824,41.244
	c0.199,0.088,0.408,0.148,0.623,0.18c0-0.09,0-0.18,0.061-0.478C143.257,40.98,143.02,41.082,142.824,41.244z M142.619,42.98
	c0.294-0.037,0.583-0.105,0.861-0.207c0-0.091-0.123-0.271-0.684-0.568c-0.089,0-0.268,0.298-0.206,0.775H142.619z M145.73,41.783
	c0.057-0.264,0.025-0.537-0.088-0.781c-0.11-0.24-0.199-0.49-0.268-0.747c-0.084,0.122-0.143,0.259-0.17,0.405
	c-0.027,0.146-0.023,0.295,0.009,0.439c0.034,0.145,0.097,0.28,0.187,0.398C145.488,41.615,145.602,41.713,145.73,41.783z
	 M143.275,47.863c0.553,0.188,1.139,0.249,1.717,0.18c-0.393-0.186-0.813-0.307-1.245-0.359
	C143.574,47.688,143.408,47.752,143.275,47.863z M145.464,47.926c-0.266,0.298,0,0.478,0.951,0.748
	c0.062-0.453,0.021-0.916-0.123-1.35C145.909,47.449,145.936,47.809,145.464,47.926z M94.655,48.285
	c-0.22-0.261-0.381-0.568-0.472-0.898h-0.178c-0.237,0.414-0.445,0.844-0.623,1.287c0.089,0,0.089,0,0.178,0.09
	c0.739-0.063,1.095-0.208,1.095-0.45V48.285z M97.172,44.239c0.204-0.894,0.305-1.808,0.301-2.726l-0.178,0.146l0.089,0.09
	c-0.409,0.792-0.546,1.7-0.39,2.58C97.083,44.239,97.083,44.239,97.172,44.239z M94.655,44.419h-0.178
	c-0.078,0.112-0.11,0.251-0.089,0.388C94.388,44.744,94.478,44.654,94.655,44.419z M98.267,43.879v-0.566
	c0.482-0.778,0.769-1.664,0.835-2.58h-0.355c0.979-2.306,1.762-4.691,2.339-7.133h-0.178c-0.267,0.63-0.685,1.529-1.218,2.547
	c-0.066,0.396-0.253,0.764-0.533,1.051c-0.02,0.288-0.111,0.566-0.268,0.809c-0.387,1.14-0.665,2.314-0.827,3.508
	c0,0.18,0,0.235,0.089,0.325c0.088-0.087,0.205-0.14,0.329-0.146c-0.099,0.385-0.218,0.764-0.356,1.135
	c-0.08,0.174-0.121,0.362-0.121,0.553c0,0.191,0.041,0.381,0.121,0.555c0.024-0.021,0.053-0.037,0.083-0.047
	c0.031-0.01,0.063-0.013,0.095-0.01H98.267z M98.541,36.686c-0.089,0-0.089,0.152-0.356,0.574c0,0.055,0,0.055,0.089,0.145
	c0.137-0.209,0.228-0.443,0.268-0.691V36.686z M94.806,42.019c-0.411,0.09-0.684,0.81-0.684,2.007
	C94.478,43.789,94.744,43.16,94.806,42.019z M94.895,41.811c0.121-0.338,0.192-0.691,0.212-1.051
	c-0.101,0.387-0.25,0.758-0.444,1.107c0.025-0.037,0.063-0.063,0.105-0.074C94.811,41.783,94.856,41.789,94.895,41.811z
	 M104.137,26.157c-0.007-0.045-0.002-0.09,0.014-0.132s0.041-0.08,0.074-0.11h-0.232c-0.055,0.05-0.1,0.111-0.129,0.179
	c-0.031,0.068-0.047,0.141-0.049,0.215C103.918,26.252,104.025,26.202,104.137,26.157z M102.084,28.434h-0.089
	c-0.259,0.372-0.468,0.776-0.623,1.203c0.209-0.122,0.382-0.297,0.502-0.509s0.183-0.451,0.183-0.694H102.084z M100.456,28.018
	c-0.089,0-0.179,0-0.179,0.056S100.456,28.073,100.456,28.018z M102.939,25.645c-0.59,0.063-1.006,0.063-1.369,0.125v0.415
	c0.267,0.09,0.328,0.152,0.328,0.394c-0.058,0.226-0.088,0.458-0.088,0.692c0.504-0.424,0.89-0.972,1.121-1.592L102.939,25.645z
	 M99.115,28.322l-0.09-0.063c-0.088,0.063-0.088,0.063-0.088,0.152C99.025,28.322,99.025,28.322,99.115,28.322z M96.83,32.396
	c-0.245-0.012-0.486,0.062-0.684,0.207c-0.506,0-0.746,0-0.834,0.09v0.152c0.15,0.09,0.506,0.236,0.923,0.416
	c0.172-0.068,0.32-0.188,0.425-0.342s0.162-0.336,0.163-0.523H96.83z M99.136,25.984c0.11-0.08,0.201-0.184,0.267-0.305
	c0.046,0.106,0.076,0.218,0.089,0.332c-0.093-0.009-0.187,0.012-0.267,0.063C99.225,25.984,99.225,25.984,99.136,25.984z
	 M95.257,35.51c0.089-0.242,0.267-0.478,0.444-0.872c-0.472-0.261-0.982-0.44-1.512-0.532c0.214,0.172,0.469,0.284,0.739,0.324
	c-0.072,0.381-0.051,0.772,0.062,1.143C95.07,35.521,95.164,35.5,95.257,35.51z M99.58,24.545c0.093,0.057,0.162,0.145,0.195,0.25
	c0.032,0.104,0.026,0.217-0.018,0.318c-0.046,0.227-0.172,0.428-0.355,0.567C99.402,24.988,99.491,24.635,99.58,24.545z
	 M93.355,33.684c-0.316-0.139-0.661-0.201-1.005-0.18c0.334,0.111,0.645,0.285,0.917,0.512
	C93.355,33.926,93.355,33.836,93.355,33.684z M92.145,28.502l-0.089,0.056c0.06,0.011,0.113,0.042,0.15,0.09
	C92.117,28.558,92.117,28.558,92.145,28.502z M88.403,27.146c-0.255-0.014-0.509,0.039-0.739,0.152
	c0.055,0.234,0.739,0.746,2.052,1.494c0.089-0.388-1.21-1.384-1.299-1.646H88.403z M87.199,29.305
	c-0.513-0.352-0.974-0.775-1.368-1.26c-0.089,0-0.355,0.09-0.773,0.152c0.089,0.09,0.178,0.236,0.267,0.326
	c0.639,0.231,1.246,0.545,1.806,0.934c0-0.09,0-0.09,0.089-0.152H87.199z M82.78,44.766c-0.034,0.898-0.089,1.764-0.089,2.572
	C83.102,47.014,83.136,46.142,82.78,44.766z M79.135,43.029c-0.035,0.045-0.059,0.098-0.069,0.154s-0.008,0.115,0.008,0.17
	C79.123,43.254,79.144,43.141,79.135,43.029z M79.196,42.579l-0.034-0.603c-0.049,0.209-0.088,0.418-0.116,0.631
	c0-0.063,0.062-0.063,0.15,0V42.579z M79.196,34.666c-0.058-0.048-0.131-0.07-0.205-0.063c-0.064,0.527-0.064,1.063,0,1.591
	c0.123-0.5,0.183-1.014,0.178-1.528H79.196z M80.174,34.963c-0.062-2.697-0.089-4.254-0.15-4.613
	c-0.267,0.27-0.383,1.078-0.294,2.338c-0.036,0.815,0.095,1.631,0.383,2.393C80.113,35.025,80.113,35.025,80.174,34.963z
	 M81.836,33.496c-0.05-0.591-0.201-1.168-0.444-1.708c-0.188-0.464-0.327-0.946-0.417-1.438H80.77
	c0.089,0.566,0.232,1.168,0.294,1.798c0.15,0.59,0.15,1.208,0,1.799c0.034,0.09,0.089,0.27,0.15,0.505
	c0.189-0.063,0.352-0.188,0.46-0.357c0.108-0.168,0.156-0.369,0.135-0.57L81.836,33.496z M75.079,36.188
	c-0.117,0-0.206,0-0.267,0.035c-0.388,0.635-0.713,1.307-0.971,2.006c0.485-0.646,0.9-1.342,1.238-2.076V36.188z M69.839,43.07
	c0.111,0.082,0.23,0.151,0.355,0.207c0.588-0.27,0.855-0.809,0.828-1.736c-1.067,0.388-1.601,0.928-1.566,1.674
	c0.07,0.006,0.141-0.005,0.208-0.029C69.729,43.16,69.789,43.121,69.839,43.07z M74.9,30.75h0.15c0-0.063,0-0.063,0.062-0.124
	c-0.212,0-0.417,0.332-0.534,0.989c0.205-0.146,0.267-0.478,0.321-0.899V30.75z M58.306,48.3C58.15,48.283,58,48.23,57.865,48.148
	s-0.25-0.191-0.338-0.324c-0.088-0.131-0.146-0.281-0.171-0.438c-0.025-0.157-0.016-0.318,0.027-0.471l-0.267-0.035
	c-0.162,0.541-0.281,1.094-0.355,1.654c0.075-0.006,0.149,0.014,0.212,0.055c0.855-0.055,1.368-0.145,1.368-0.297L58.306,48.3z
	 M75.284,30.308c0.065-0.163,0.104-0.337,0.116-0.512c-0.067,0.016-0.138,0.016-0.205,0c0.039,0.168,0.039,0.343,0,0.512
	c0.038,0.013,0.078,0.013,0.116,0H75.284z M76.795,27.638c0,0.062,0.089,0.18,0.144,0.359h0.267
	c0.412-0.548,0.614-1.229,0.568-1.916c-0.479-0.09-0.862-0.118-1.067-0.18c-0.031,0.482-0.09,0.963-0.178,1.438
	c-0.117,0.078-0.217,0.18-0.294,0.299s-0.128,0.253-0.15,0.393c0.055,0,0.383-0.449,0.684-0.422L76.795,27.638z M74.839,27.492
	h-0.144c-0.062,0.117-0.062,0.297-0.123,0.449c0.062,0,0.123-0.152,0.267-0.422V27.492z M75.017,27.008v-0.234
	c-0.062,0.055-0.062,0.18-0.15,0.27C74.913,27.018,74.964,27.006,75.017,27.008z M66.248,40.67
	c-0.089-0.235-0.205-0.235-0.294-0.297c-0.001,0.125,0.029,0.248,0.089,0.359C66.097,40.67,66.159,40.67,66.248,40.67z
	 M63.778,39.881c-0.078-0.057-0.171-0.088-0.267-0.09c0.102,0.314,0.272,0.6,0.499,0.838C63.95,40.374,63.873,40.125,63.778,39.881z
	 M62.355,39.045c-0.062,0-0.062,0-0.062,0.145C62.294,39.135,62.294,39.072,62.355,39.045z M61.111,37.121l-0.124,0.035
	c0,0.055,0,0.055,0.062,0.117c0.022-0.018,0.04-0.041,0.05-0.068C61.111,37.179,61.114,37.15,61.111,37.121z M60.55,36.223h-0.123
	c0.062,0.09,0.123,0.151,0.212,0.27c-0.06-0.066-0.092-0.153-0.089-0.242V36.223z M57.999,42.123c0,0.033,0.062-0.596,0.089-1.944
	c0.099-0.626,0.038-1.267-0.178-1.86c-0.178,0.214-0.239,1.646-0.178,4.344C57.882,42.607,57.937,42.393,57.999,42.123z
	 M60.05,32.438c-0.057,0.105-0.074,0.227-0.047,0.344c0.026,0.115,0.094,0.218,0.19,0.287C60.255,32.916,60.194,32.736,60.05,32.438
	z M62.951,33.607c0-0.063-0.15-0.422-0.417-1.142c-0.102-0.396-0.271-0.771-0.499-1.106c-0.212-0.54-0.178-0.422-0.8-2.006
	c-0.212-0.298-0.506-0.692-0.828-1.232c0.1,0.373,0.237,0.734,0.41,1.08c0.572,1.522,1.246,3.004,2.018,4.434c0,0,0.055,0,0.116,0
	V33.607z M57.971,28.509c0.043-0.82,0.004-1.644-0.117-2.456h-0.328c0,1.439,0.123,2.304,0.328,2.546c0.062,0,0.062,0,0.117-0.063
	V28.509z M51.22,42.371l0.089-0.09c0.116,0,0.116,0,0.116,0.09s0,0.09-0.116,0.18C51.309,42.461,51.309,42.461,51.22,42.371z
	 M50.098,37.121c-0.008-0.145,0.022-0.287,0.089-0.415l-0.89-0.034c-0.105,0.152-0.176,0.328-0.205,0.512
	C49.429,37.189,49.765,37.17,50.098,37.121z M46.397,37.273l-0.301-0.152c-0.089,0.063-0.205,0.063-0.294,0.152s0,0.09,0.089,0.18
	C45.98,37.363,46.185,37.363,46.397,37.273z M42.423,45.27c-0.684-0.09-1.779-0.18-3.078-0.207v0.152c0,0.09,0.089,0.09,0.178,0.09
	C40.822,45.242,41.712,45.27,42.423,45.27z M31.964,44.82c-0.011,0.392,0.019,0.783,0.089,1.169
	C32.354,45.395,32.354,44.973,31.964,44.82z M44.735,27.479c0.073-0.129,0.112-0.273,0.117-0.422h0.178v-0.152
	c-1.067-0.117-1.778,0-2.278,0.602c0.089,0,0.178,0,0.472,0.117C43.723,27.539,44.229,27.49,44.735,27.479z M33.859,36.076h-0.294
	c-0.391,0.991-0.453,2.084-0.178,3.113C33.715,38.954,33.832,37.931,33.859,36.076z M33.982,35.834v-0.422H33.77
	c-0.044,0.094-0.068,0.197-0.068,0.301c0,0.105,0.023,0.207,0.068,0.301C33.77,35.924,33.859,35.924,33.982,35.834z M37.833,29.188
	c0.509-0.193,1.003-0.424,1.478-0.692c-0.147-0.085-0.307-0.146-0.472-0.18c-0.304,0.021-0.598,0.113-0.861,0.27
	c-0.262,0.155-0.485,0.372-0.651,0.63c-0.321,0.415-0.684,0.691-1.033,1.135c-0.082,0.158-0.124,0.333-0.124,0.512
	c0.417-0.09,0.924-0.691,1.663-1.646V29.188z M31.075,40.089c-0.055-0.755-0.055-1.681-0.116-2.767l-0.294,0.062
	c-0.164,0.45-0.228,0.932-0.187,1.409c0.04,0.479,0.183,0.941,0.419,1.357c0.068-0.006,0.132-0.038,0.178-0.09V40.089z
	 M30.986,35.357c-0.294,0.09-0.411,0.415-0.411,0.927C30.87,36.194,30.986,35.952,30.986,35.357z M33.982,30.771
	c-0.089-0.063-0.089,0-0.178,0.09C33.873,30.854,33.936,30.822,33.982,30.771z M36.766,26.787h-0.472
	c-0.082,0.158-0.124,0.333-0.124,0.512c0.135-0.026,0.26-0.088,0.364-0.178C36.64,27.032,36.719,26.916,36.766,26.787z
	 M20.227,44.253c-0.506,0.152-0.773,0.45-0.684,0.899c0.188-0.066,0.353-0.188,0.475-0.347
	C20.138,44.646,20.211,44.454,20.227,44.253z M18.633,47.373c-0.151-0.361-0.386-0.682-0.684-0.934
	c-0.07,0.337-0.017,0.688,0.15,0.988c0.329,0,0.506,0,0.506-0.055H18.633z M22.333,41.195c0.15,0.063,0.239,0.305,0.328,0.512h0.15
	c-0.002-0.256-0.053-0.51-0.15-0.746c-0.41-0.084-0.831-0.096-1.245-0.035c0.09,0.289,0.2,0.57,0.328,0.844
	C21.869,41.515,22.077,41.312,22.333,41.195z M20.767,43.271c0.061-0.778-0.126-1.557-0.534-2.22h-0.328
	c-0.178,0.387-0.356,1.105-0.684,2.074c1.094-0.124,1.539-0.18,1.272-0.18c-0.063,0.142-0.093,0.295-0.089,0.45
	c0.094-0.071,0.212-0.103,0.329-0.091L20.767,43.271z M16.704,47.705l-0.15-1.197c-0.368,0.041-0.733,0.101-1.094,0.18
	c-0.083,0.379-0.064,0.773,0.055,1.142C15.907,47.762,16.305,47.72,16.704,47.705z M14.098,47.56h-0.15c0,0.09,0,0.235-0.089,0.298
	C13.947,47.857,14.098,47.649,14.098,47.56z M16.759,41.057c-0.233,0.09-0.411,0.146-0.588,0.208c0,0,0.089,0.388,0.321,1.231
	C16.581,41.895,16.669,41.445,16.759,41.057z M11.108,47.062c-0.084-0.009-0.17,0.013-0.239,0.062
	c0.069,0.089,0.12,0.189,0.15,0.299C11.108,47.359,11.108,47.213,11.108,47.062z M12.408,41.527
	c-0.373-0.164-0.76-0.294-1.156-0.387c0,0.152,0.055,0.297,0.144,0.512C11.574,41.652,11.902,41.59,12.408,41.527z M9.946,46.771
	c0-0.692-0.684-0.775-1.368-1.08c-0.055-0.145-0.144-0.297-0.055-0.449c0.129-0.144,0.22-0.316,0.267-0.505
	c-0.089,0-0.178-0.09-0.267-0.181c0.116-0.573,0.684-0.926,0.684-1.016s-0.15-0.36-0.417-0.602c-0.15-1.107-0.294-1.709-0.472-1.709
	l0.055,1.889c-0.165,0.654-0.205,1.336-0.116,2.006c-0.085,0.223-0.146,0.455-0.178,0.691c0,0.602,1.307,0.781,1.717,1.079
	c0.063-0.003,0.125-0.025,0.178-0.063L9.946,46.771z M10.124,39.314c-0.062-0.388-0.212-0.9-0.355-1.584c0,0,0,0.449-0.124,1.258
	c0.014,0.25,0.097,0.489,0.24,0.692c0,0.512,0,0.81,0.062,0.899c0.03-0.424,0.089-0.844,0.178-1.26V39.314z M5.117,37.018
	c-0.089-0.063-0.062-0.152-0.151-0.215s-0.089,0.305,0,0.962c0.089-0.36,0.089-0.657,0.178-0.747H5.117z M5.144,34.112H4.877
	c0.089,0.09,0.089,0.298,0.144,0.532C5.021,34.41,5.021,34.202,5.144,34.112z M5.055,33.662H4.815
	c0.049,0.068,0.071,0.152,0.062,0.236C4.966,33.808,4.966,33.752,5.055,33.662z M8.373,22.774v-1.383
	c-0.056-0.002-0.109-0.024-0.15-0.063c-0.089,0.208-2.579,0.45-2.668,1.259c0.089,0,2.641,0.208,2.791,0.152L8.373,22.774z
	 M4.549,22.74H4.282c0.037,0.233,0.086,0.465,0.151,0.692C4.521,23.342,4.521,23.127,4.549,22.74z M22.053,4.948
	c0.117-1.204,0.144-2.075,0.233-2.767c-0.115-0.093-0.25-0.157-0.393-0.188S21.6,1.965,21.458,2.001
	c-0.232,1.01-0.107,2.07,0.355,2.996c0.083,0.008,0.168-0.011,0.239-0.056V4.948z M20.452,5.356
	c-0.062-0.989-0.123-1.646-0.355-1.888c-0.089,0-0.089,0-0.178,0.062c-0.057,0.632-0.018,1.269,0.116,1.889
	C20.162,5.346,20.311,5.324,20.452,5.356z M1.984,23.487c-0.142,2.715-0.121,5.437,0.062,8.149
	C2.223,31.332,2.189,28.641,1.984,23.487z M9.59,13.858H9.412c0,0.388,0,0.899,0.062,1.646C9.589,14.964,9.628,14.41,9.59,13.858z
	 M17.504,5.094V2.936c-0.329,0.152-0.828,0.36-1.423,0.574c0.072,0.67,0.389,1.29,0.889,1.736c0.089-0.09,0.239-0.09,0.506-0.152
	H17.504z M2.688,20.312c-0.03-0.026-0.054-0.059-0.07-0.097c-0.015-0.037-0.022-0.078-0.019-0.118c-0.089,0-0.089,0.062-0.089,0.27
	C2.51,20.312,2.599,20.312,2.688,20.312z M8.496,12.786c0.267-1.106,0.39-1.854,0.15-2.393c-0.116,0.54-0.205,1.383-0.417,2.456
	C8.322,12.858,8.416,12.836,8.496,12.786z M17.388,1.497c-1.039-0.261-2.122-0.292-3.174-0.09c0.917,0.09,1.067,0.989,1.423,1.287
	c0.558-0.44,1.153-0.829,1.778-1.162L17.388,1.497z M8.851,9.832V9.23C8.762,9.292,8.762,9.5,8.673,9.922
	c0.032,0.004,0.064,0.001,0.095-0.009c0.031-0.009,0.059-0.025,0.083-0.046V9.832z M2.333,14.986
	c-0.047,0.321-0.026,0.649,0.062,0.961C2.289,15.638,2.268,15.306,2.333,14.986z M12.408,4.375
	c-0.089-0.505-0.089-0.505-0.684-0.747c-0.089-0.152-0.089-0.242-0.178-0.242c-0.016,0.386,0.036,0.772,0.15,1.141
	c0.417-0.09,0.595-0.062,0.684-0.152H12.408z M4.556,3.959c0.355-0.872,2.818-0.81,3.557-0.872C8.229,2.88,8.291,2.638,8.468,2.278
	c0.289,0.024,0.58,0.003,0.862-0.062c0-0.955,0.793,1.141,0.793,1.95c0.083,0.02,0.164,0.05,0.239,0.09
	c0.002-0.773,0.053-1.544,0.15-2.311c-0.595-1.224-3.673,0.36-3.707,0.36c-0.27,0.274-0.481,0.602-0.623,0.961
	c0.035,0.034,0.077,0.06,0.124,0.075C6.353,3.358,6.402,3.363,6.45,3.357c0.062,0.208-2.305,0.297-2.161,0.692
	c0.035-0.034,0.077-0.06,0.123-0.075C4.458,3.958,4.507,3.953,4.556,3.959z M17.949,43.084c-0.004-0.076-0.029-0.149-0.071-0.213
	c-0.042-0.063-0.1-0.113-0.168-0.146c0,0.152,0,0.305,0.089,0.359H17.949z M195.111,41.32l0.033-0.691h-0.178
	c-0.09,0.262-0.09,0.547,0,0.809L195.111,41.32z M195.057,40.179v-0.152V40.179z M194.523,38.795
	c0.088-0.09,0.088-0.152,0.177-0.242c-0.089-0.207-0.089-0.359-0.177-0.359V38.795z M186.458,49.76h0.356
	c-0.112,0.051-0.234,0.072-0.356,0.062V49.76z M185.773,49.006v-0.146h0.09l-0.034,0.146H185.773z M184.29,50.479v-0.09h0.267v0.09
	H184.29z M189.146,43.139c-0.056,0-0.056,0-0.145-0.09h0.322L189.146,43.139z M192.566,37.232c0.088,0,0.088-0.057,0.178-0.208
	h-0.178V37.232z M195.09,32.832h0.09V32.77h-0.09V32.832z M183.462,50.084V49.85h0.149c0,0.09,0,0.09,0.09,0.145L183.462,50.084z
	 M183.995,45.533c0.194-0.052,0.39-0.091,0.589-0.118c0-0.09,0-0.09,0.089-0.152l-0.685,0.118L183.995,45.533z M179.132,49.399
	c-0.089-0.18-0.089-0.242,0-0.304c0.089,0.062,0.089,0.152,0.179,0.304H179.132z M181.711,46.633
	c-0.089-0.388-0.232-0.748-0.322-1.142c-0.133,0.181-0.193,0.407-0.166,0.631s0.139,0.429,0.311,0.573L181.711,46.633z
	 M183.846,44.295c0.594-0.063,1.271-0.118,1.928-0.242l0.444,0.063c0.739-0.36,2.929-0.208,3.612-0.506
	c-0.048,0.006-0.098,0.002-0.143-0.014c-0.047-0.016-0.09-0.042-0.125-0.076c0.08-0.05,0.174-0.072,0.268-0.063
	c0.044-0.004,0.088,0.003,0.13,0.019c0.041,0.016,0.079,0.04,0.11,0.071c0.088-0.09,0.266-0.062,0.498-0.151
	c-0.004-1.142,0.056-2.282,0.179-3.417c-0.19-0.063-0.39-0.094-0.589-0.09c0.092,0.354,0.048,0.729-0.123,1.051h-0.65
	c-0.088,0-0.088,0-0.088-0.063c-0.46-0.145-0.945-0.186-1.423-0.117c0,0.234,0.328,0.539,0.328,0.747l-0.507-0.54
	c-0.827-0.449-2.051-0.27-3.7,0.54c-0.366,0.86-0.44,1.818-0.212,2.726L183.846,44.295z M179.932,46.75h0.09v-0.145h-0.09V46.75z
	 M180.999,47.594c-0.054-0.305-0.562-0.539-1.299-0.629c0.054,0.297,0.889,0.387,1.155,0.629H180.999z M179.7,46.813h0.143
	l0.035-0.09H179.7V46.813z M183.518,40.248h0.266v-0.152h-0.266V40.248z M189.324,32.134c0.085,0.009,0.17-0.013,0.238-0.063
	c0.041-0.548,0.041-1.099,0-1.646h-0.178L189.324,32.134z M177.832,44.087v-0.208h0.089v0.208H177.832z M180.527,39.438
	c0.178,0.03,0.359-0.013,0.507-0.118l0.088-0.387c-0.21,0.133-0.409,0.283-0.595,0.449V39.438z M182.895,30.633h0.088v-0.207h-0.088
	V30.633z M182.895,30.273c0.073-0.391,0-0.796-0.205-1.135h-0.178c-0.052,0.201-0.049,0.413,0.01,0.613
	c0.058,0.199,0.168,0.379,0.317,0.521H182.895z M191.547,49.386c-0.115,0.062-0.115,0.152-0.178,0.214
	c-0.256-0.016-0.514,0.002-0.766,0.057l-0.328-0.389c0.115-1.033,0.136-2.074,0.061-3.112h-0.061
	c-0.49,0.341-1.045,0.576-1.629,0.692c-1.986,0.857-4.082,1.433-6.225,1.708c0,0.235,0.473,0.747,0.473,0.747
	c-0.088,0.043-0.187,0.051-0.279,0.023c-0.094-0.029-0.172-0.092-0.221-0.176c-0.273-0.11-0.524-0.272-0.738-0.477l-1.067-0.09
	c-0.089-0.152-0.506-0.242-1.368-0.242c-0.561-0.236-0.889-0.838-1.033-1.826c-0.062-0.748-0.062-1.467-0.123-2.158
	c0-0.063-0.088-0.063-0.178-0.152c0.121,0.002,0.241-0.017,0.356-0.057v-0.691c-0.056-0.055-0.144-0.055-0.233-0.145
	c-0.072,0.09-0.132,0.189-0.178,0.297c-0.089-0.063-0.089-0.207-0.15-0.359c0.233-0.051,0.463-0.119,0.685-0.207
	c0.114-1.146,0.362-2.275,0.739-3.362c0.244-0.518,0.6-0.973,1.041-1.332c0.441-0.358,0.957-0.613,1.51-0.743
	c1.96,0.136,3.929,0.027,5.861-0.325c0.762,0.042,1.524,0.042,2.285,0c0.232-0.09,0.588-0.214,1.094-0.422
	c-0.065-1.226-0.295-2.435-0.684-3.597c-1.056,0.057-2.115,0.026-3.167-0.09c-1.005,0-2.517,0-4.446,0.062
	c-0.521,0.11-1.035,0.251-1.539,0.423c0.367-0.007,0.733,0.023,1.094,0.09v0.09c-0.18-0.029-0.365-0.016-0.541,0.041
	c-0.174,0.057-0.332,0.153-0.463,0.283c-0.236,0.008-0.467,0.06-0.685,0.152l0.034-0.602h0.322v-0.055
	c-0.59-0.242-0.739-0.692-0.385-1.35c0.088-1.042-0.033-2.092-0.354-3.085c-0.513,0.081-1.019,0.2-1.513,0.359
	c0.09-0.844,1.272-1.259,3.38-1.384c0.178-0.09,0.411-0.242,0.684-0.359c0.937,0.193,1.892,0.264,2.847,0.207
	c1.422-0.055,2.25-0.18,2.373-0.477c0.055-0.063,0.232-0.063,0.41-0.152c0.155,0.084,0.273,0.225,0.328,0.395
	c0.551,0.082,1.111,0.082,1.662,0c0.684,0,1.684,0.063,3.018,0.152c0.774,0.848,1.479,1.76,2.106,2.725l0.56,1.584
	c0.063,1.592,0.004,3.186-0.176,4.767c0,1.501,0.176,2.608,0.238,3.354c-0.123,1.861-0.212,2.768-0.123,2.768
	c-0.307,0.954-0.417,1.962-0.322,2.961c0.092,0.991,0.041,1.99-0.15,2.967c-0.223,0.258-0.496,0.469-0.801,0.617
	c-0.307,0.15-0.639,0.236-0.978,0.255c-0.664-0.259-1.351-0.45-2.052-0.574H191.547z M171.17,44.945h0.089v-0.063h-0.089V44.945z
	 M168.831,48.403l-0.089-0.151h-0.329c0,0.09,0,0.242,0.089,0.304L168.831,48.403z M170.992,44.744c0-0.09-0.145-0.297-0.473-0.629
	c-0.088,0.09,0.09,0.332,0.418,0.629H170.992z M169.008,43.727v-0.145c-0.088,0-0.088,0-0.088,0.055L169.008,43.727z
	 M168.857,47.145c-1.066-0.837-1.744-1.231-2.051-1.231c0.567,0.899,0.684,0.989,1.661,1.231H168.857z M167.75,42.725h0.089v-0.09
	h-0.089V42.725z M170.301,44.045c-0.255-0.277-0.484-0.578-0.684-0.898c-0.544-0.334-1.051-0.726-1.512-1.17h-0.15
	c0.1,0.082,0.182,0.184,0.238,0.298c0.418,0.395,1.068,0.989,1.984,1.771H170.301z M166.006,41.105v-0.145h-0.178
	c0,0.09,0,0.09,0.089,0.145H166.006z M167.695,41.583c-0.08-0.05-0.174-0.071-0.268-0.063c-0.318-0.548-0.73-1.034-1.217-1.438
	c-0.738-0.781-1.245-1.17-1.479-1.17c0.359,0.518,0.765,0.998,1.211,1.439c0.582,0.365,1.111,0.811,1.574,1.321L167.695,41.583z
	 M164.645,38.816c0.088,0.034,0.088,0.034,0.178-0.056h-0.178V38.816z M157.146,48.348c-0.119-0.336-0.17-0.693-0.149-1.051h0.267
	c0.055-0.135,0.137-0.258,0.239-0.359h0.089c-0.064,0.473-0.184,0.938-0.355,1.383L157.146,48.348z M161.799,39.059h0.15v-0.152
	l-0.15-0.056V39.059z M156.375,48.916c0.652-0.018,1.301-0.119,1.928-0.305c-0.205-1.494-0.266-2.186-0.266-2.076
	c-0.089-0.691-0.24-1.494-0.383-2.482l-0.24,0.145v0.962c0,0.09-0.089,0.54-0.212,1.196c-0.017,0.204-0.101,0.396-0.24,0.543
	c-0.14,0.148-0.325,0.242-0.526,0.267L156.375,48.916z M155.458,48.916c0.095-1.098,0.116-2.2,0.062-3.301
	c-0.025,1.107-0.136,2.211-0.328,3.301H155.458z M155.458,45.408c0.089,0,0.089,0,0.089-0.09L155.458,45.408z M157.708,42.413
	v-0.298l-0.354,0.27c0.033,0.029,0.058,0.065,0.073,0.106c0.015,0.042,0.021,0.085,0.015,0.13L157.708,42.413z M162.127,34.804
	h0.355c-0.006-0.04,0-0.079,0.016-0.116s0.041-0.068,0.074-0.092c-0.121-0.008-0.243,0.011-0.356,0.057L162.127,34.804z
	 M161.977,35.012l0.15-0.146L161.977,35.012z M156.271,42.911l-0.178,0.062c-0.052,0.584-0.001,1.172,0.151,1.736L156.271,42.911z
	 M155.383,41.527h0.09v-0.09h-0.09V41.527z M157.988,37.246c-0.088-0.063-0.088-0.208-0.055-0.45c-0.088,0-0.088,0.152-0.123,0.54
	L157.988,37.246z M155.473,40.705c0-0.063,0.088-0.152,0.176-0.36h-0.149L155.473,40.705z M154.732,40.856h0.09
	c0-0.09,0-0.09-0.09-0.151V40.856z M157.961,34.631h0.213v-0.691l-0.063,0.063L157.961,34.631z M154.76,39.543
	c0,0.242-0.061-1.018-0.089-3.652c-0.089,0-0.089,0-0.178,0.09c-0.022,1.189,0.036,2.38,0.178,3.563H154.76z M156.477,37.301
	c0.09-0.242,0.213-1.501,0.418-3.659h-0.15c0.104-0.599-0.012-1.216-0.322-1.735c-0.152,0.412-0.242,0.846-0.266,1.285
	c-0.081,0.284-0.094,0.584-0.035,0.873c0.178,0.09,0.24,1.134,0.178,3.202L156.477,37.301z M154.911,33.372l0.054-0.056
	c0-0.09,0-0.09-0.054-0.152V33.372z M157.277,28.434h0.062c0.089-0.063,0.089-0.152,0.089-0.305h-0.15V28.434z M154.911,32.625
	c0-0.063,0-0.063,0.089-0.063c0.089-0.898,0.116-1.799,0.143-2.697h-0.178L154.911,32.625z M156.184,27.741h0.088v-0.208h-0.062
	L156.184,27.741z M154.555,30.314c-0.002-0.029-0.011-0.059-0.025-0.084c-0.016-0.025-0.037-0.047-0.063-0.061
	c0,0.055,0,0.055-0.089,0.145H154.555z M156.21,27.443h0.062v-0.152h-0.088L156.21,27.443z M155.443,27.354h0.09v-0.063h-0.096
	L155.443,27.354z M155.294,26.842h0.089v-0.152h-0.089V26.842z M157.544,27.921l0.089,2.608c-0.089-0.063-0.089-0.063-0.143-0.063
	c-0.213,0.871-0.213,1.321-0.124,1.383c0,0.692-0.232-5.458,0-4.842c-0.056,0.297-0.087,0.598-0.089,0.899L157.544,27.921z
	 M158.167,29.117h-0.179c0.09,0.09,0.09,0.242,0.179,0.305V29.117z M155.205,26.689l0.268-0.235c-0.09-0.063-0.09-0.152-0.152-0.36
	c-0.088,0-0.088,0-0.088,0.056L155.205,26.689z M157.49,29.775c-0.045,0.056-0.068,0.125-0.068,0.197
	c0,0.07,0.023,0.141,0.068,0.197V29.775z M153.577,28.641c0.089-0.063,0.178-0.117,0.178-0.207
	c-0.032-0.004-0.063-0.002-0.095,0.008c-0.03,0.01-0.059,0.025-0.083,0.047V28.641z M154.732,25.251c0-0.055,0-0.055-0.062-0.145
	h-0.178c-0.001,0.105,0.03,0.209,0.089,0.297L154.732,25.251z M154.965,30.709v-0.242c-0.088,0-0.355-6.71-0.443-6.558
	L154.965,30.709z M154.877,30.17h0.088v-0.215h-0.088V30.17z M156.156,29.989c0.089-0.388,0.266-1.142,0.443-2.248
	c-0.662,0.046-1.328,0.046-1.99,0c-0.088,0.375-0.088,0.767,0,1.142h0.144c0.073-0.176,0.134-0.355,0.179-0.539h0.766
	c0.174,0.537,0.304,1.087,0.39,1.646H156.156z M153.55,49.281c0.237-0.503,0.327-1.064,0.259-1.617c0.063-2.159,0.035-4.193,0-5.901
	l0.09-0.062c-0.062-0.541-0.116-1.944-0.144-4.345c0-0.056,0-0.954,0.144-2.815c-0.09-0.595-0.144-1.26-0.295-2.006
	c-0.23-2.01-0.27-4.036-0.115-6.053c0-0.063,0.089-0.063,0.178-0.063h-0.281c0.117-0.595,0.206-1.383,0.322-2.545
	c0-0.81,0.15,4.793-0.089,3.209c0.089-0.359,0.267-0.574,0.532-0.574c0.268,0,0.891,0.305,1.246,0.332
	c0.543-0.009,1.084-0.1,1.601-0.27c0,0,0.328,0,1.006-0.063c0.315-0.05,0.642,0.014,0.916,0.18c0.212,1.204,0.417,3.002,0.623,5.458
	c0.062,1.259-0.144-4.254-0.179-2.995c0.062,0.387,0.062,0.539,0,0.596c-0.116,1.556-0.204,2.365-0.204,2.455l-0.089,3.957
	c0.089,0.063,0.089,0.063,0.143,0.063c0.734-0.595,1.421-1.247,2.053-1.951c0.672-0.497,1.295-1.058,1.86-1.674
	c0.14-0.09,0.288-0.162,0.444-0.215c0.957-1.165,2.02-2.237,3.174-3.203c0.178-0.512,0.595-0.746,1.334-0.691
	c0.186,0.078,0.388,0.108,0.588,0.09c0.418,0,2.018-0.449,2.613-0.449s0.738,0.234,1.505,0.324c0.062,0.215,0.151,0.54,0.239,0.962
	c-0.271,0.478-0.568,0.938-0.89,1.384c-0.832,0.682-1.606,1.434-2.312,2.248l-0.766,0.657c-1.347,1.169-2.633,2.409-3.852,3.714
	c0.917,0.828,1.74,1.756,2.456,2.768c0.889,0.775,1.717,1.467,2.551,2.075l2.134,2.187c1.028,0.666,1.873,1.584,2.456,2.67h0.151
	c0.133,0.297,0.3,0.578,0.499,0.836c0,0.299,0.301,1.045,0.301,1.439l-0.267,0.207c-2.479-0.165-4.965-0.165-7.442,0l-0.499-0.304
	c-0.292-1.063-0.785-2.06-1.449-2.933c-0.746-0.838-1.369-1.771-2.054-2.664c-0.504-0.666-1.103-1.254-1.778-1.742
	c-0.267-0.326-0.595-0.692-0.978-1.225c-0.445,0-1.272,0.691-2.579,2.074c0.063,1.385,0,1.944,0.116,1.799
	c-0.026,1.478,0.206,2.948,0.684,4.344c-0.177,0.596-1.539,0.838-4.146,0.865c-0.327,0.063-0.834,0.125-1.512,0.18
	c-0.18-0.207-0.283-0.471-0.293-0.746L153.55,49.281z M110.025,29.422l-0.239-0.27h0.327c-0.004-0.053-0.021-0.104-0.047-0.15
	c-0.025-0.047-0.061-0.088-0.103-0.119c0,0.09-0.089,0.09-0.178,0.09l0.062,0.477v0.09h0.204L110.025,29.422z M110.025,30.682h-0.09
	v0.09h0.09V30.682z M110.025,30.951h-0.178v0.2h0.204L110.025,30.951z M111.325,28.135c0.03,1.961-0.038,3.921-0.205,5.873h0.294
	c0-1.051,0.212-2.994,0.391-5c-0.125-0.091-0.152-0.395-0.268-0.873H111.325z M112.693,32.237c-0.09,0.124-0.063,0.215,0,0.513
	h0.089L112.693,32.237z M110.977,34.486l-0.295,3.084c0.09-0.09,0.09-0.09,0.205-0.09c0.034-0.691,0.239-1.646,0.391-2.994H110.977z
	 M110.832,37.875h-0.123l0.034,0.09h0.089V37.875z M112.488,32.93c-0.117,0.781-0.268,2.033-0.418,3.652h0.273
	c0.116-0.865,0.295-2.034,0.41-3.652H112.488z M112.577,39.459h-0.117v0.208h0.089L112.577,39.459z M113.999,39.908
	c-0.005,0.266-0.044,0.527-0.116,0.782h0.383c0.006-0.271-0.056-0.54-0.178-0.782H113.999z M112.577,39.667
	c-0.089,0.09-0.179,0.09-0.267,0.18c-0.469,1.711-0.813,3.454-1.033,5.216l0.472,0.961c0.083,0.066,0.188,0.1,0.294,0.09
	c-0.089-0.313-0.089-0.646,0-0.961L112.577,39.667z M114.771,42.607h-0.123l0.035,0.18h0.116L114.771,42.607z M124.309,25.5h0.211
	c-0.008,0.239,0.041,0.476,0.144,0.692h-0.588c0.089-0.09,0.055-0.388,0.144-0.692H124.309z M115.764,47.754l-0.089,0.09
	c0,0.09,0,0.09,0.116,0.09L115.764,47.754z M127.584,30.701c-0.089,0.091-0.063,0.181-0.15,0.305c0.088,0,0.178,0,0.178-0.124
	L127.584,30.701z M127.393,31.844h-0.088v0.18h0.088V31.844z M127.393,32.535h-0.088v0.09h0.088V32.535z M127.27,33.102h-0.117
	v0.118h0.09L127.27,33.102z M122.352,45.117c0,0.09-0.09,0.09-0.205,0.118h0.205V45.117z M123.391,44.605
	c-0.056,0.195-0.076,0.399-0.062,0.602c0.301,0,0.479-0.214,0.567-0.602H123.391z M126.503,39.362h-0.089v0.118h0.117
	L126.503,39.362z M126.354,39.84l-0.09,0.035v0.09h0.116L126.354,39.84z M127.98,47.033c-0.088,0-0.088,0-0.178,0.09l0.09,0.09
	L127.98,47.033z M128.282,46.072h-0.089v0.27h0.089V46.072z M130.799,43.527h-0.123l0.034,0.09h0.089V43.527z M130.416,43.797
	c-0.623,1.557-1.512,3.507-1.368,4.648c0,0.117,0.116,0.09,0.205,0.207l0.417-0.035c0.205-1.611,0.534-2.393,1.066-5L130.416,43.797
	z M132.01,41.763c-0.269,0.74-0.428,1.517-0.472,2.304c0.224-0.519,0.594-0.957,1.067-1.26c-0.17-0.334-0.311-0.684-0.418-1.044
	H132.01z M141.757,24.573c0,0.09,0,0.09,0.116,0.09c-0.039,0.036-0.086,0.063-0.137,0.079s-0.104,0.02-0.157,0.011L141.757,24.573z
	 M131.086,47.85c-0.055,0.27-0.232,0.568-0.294,0.865c0.294-0.117,0.444-0.388,0.417-0.865H131.086z M141.757,25.348
	c0,0.09,0,0.09-0.089,0.09c0.091-0.076,0.152-0.181,0.178-0.297L141.757,25.348z M142.023,24.843v0.208h-0.39v-0.18L142.023,24.843z
	 M133.043,45.678c-0.079,0.345-0.109,0.699-0.089,1.052c-0.255,0.521-0.435,1.075-0.534,1.646c0.434-0.063,0.862-0.163,1.279-0.298
	c-0.034-0.305-0.356-1.652-0.444-2.4H133.043z M135.416,46.369c-0.123,0-0.212,0.09-0.417,0.872c0.089-0.09,0.178-0.09,0.472-0.214
	L135.416,46.369z M140.984,35.191c0.045,0.258,0.045,0.523,0,0.781c0.595,0,0.861-0.297,0.772-0.961L140.984,35.191z
	 M142.913,35.461h-0.212l0.033,0.18h0.179V35.461z M141.695,39.984h-0.205c0.115,0.125,0.115,0.125,0.115,0.215L141.695,39.984z
	 M139.507,43.969c0,0.215,0.144,0.305,0.437,0.305c0-0.125,0-0.215-0.143-0.305H139.507z M141.9,40.289
	c-0.178,0.09-0.295,0.09-0.267,0.18h0.302L141.9,40.289z M142.968,36.99c-0.055,0.484,0,0.781,0.089,0.871c0,0.09,0,0.09-0.089,0.18
	h-0.206v0.297c0.133-0.137,0.299-0.24,0.479-0.297c0.041-0.35,0.041-0.702,0-1.051H142.968z M144.719,33.787
	c-0.417,0.691-0.383,1.169,0.116,1.259L144.719,33.787z M144.719,36.09c-0.062,0.305,0.061,0.484,0.268,0.754h0.205
	c-0.117-0.18-0.145-0.483-0.268-0.754H144.719z M141.518,45.381h-0.295v0.09h0.295V45.381z M145.163,38.463
	c-0.089,0.09-0.089,0.18-0.149,0.388c0.088,0,0.088,0,0.211,0.09L145.163,38.463z M145.225,39.328v0.395V39.328z M143.241,44.273
	c-0.685,0.09-0.65,0.298-0.738,0.388c0.294-0.118,0.588-0.118,0.767-0.208L143.241,44.273z M144.37,40.677
	c-0.062,0.388-0.062,0.782,0,1.169h0.472c-0.074-0.43-0.215-0.846-0.417-1.23L144.37,40.677z M142.557,46.1
	c0,0.09,0.034,0.305-0.054,0.395c0.384-0.125,0.685-0.125,0.854-0.215c-0.116-0.09-0.321-0.09-0.41-0.18H142.557z M144.932,43.257
	h-0.507c0,0.09,0.444,0.271,0.533,0.271L144.932,43.257z M141.757,46.203h-0.205c-0.151,0.479,0.328-0.602,0.827,1.225
	c0.089,2.94,0.684,0.359,0.568,0.844c-0.622-0.18-0.889-0.844-0.773-1.888L141.757,46.203z M145.375,44.973
	c-0.251,0.07-0.512,0.102-0.771,0.09v0.477c0.23,0.231,0.537,0.371,0.86,0.395L145.375,44.973z M145.375,48.119h-0.177
	c0.163,0.076,0.331,0.137,0.506,0.181l-0.034-0.208L145.375,48.119z M143.945,26.309c0.219,0.082,0.453,0.113,0.685,0.09
	c0.417,0.27,0.685,1.052,0.916,2.186c0,0.091,0,0.091-0.088,0.215c0.034,0.27,0.149,1.342,0.212,2.96
	c0.014,0.992,0.081,1.983,0.205,2.969c0.116,1.383,0.473,3.748,0.916,7.283c0.445,3.535,2.195,8.114-0.055,7.125
	c-1.545,0.539-5.574,0.754-5.842-1.916c-0.088-0.865-0.498,0.898-0.621,0.602l-0.117-1.259c-0.186-0.032-0.365-0.093-0.533-0.18
	c-1.033,0.512-2.518,1.321-4.501,2.483c-0.472,0.215-1.218,0.512-2.162,0.934c-1.489,0.32-3.019,0.411-4.535,0.27
	c-0.8-1.051-1.805-2.365-3.077-4.15c-0.117,0.014-0.234-0.018-0.328-0.09c-2.396,1.35-4.942,2.404-7.586,3.141
	c-0.445,0.395-1.424,0.602-2.99,0.629c-0.684-0.477-1.512-1.016-2.668-1.764l-0.684-0.566c-0.617-0.957-1.181-1.947-1.689-2.969
	c-0.196-0.939-0.326-1.891-0.389-2.85c-0.244-0.166-0.443-0.393-0.578-0.657c-0.136-0.265-0.203-0.56-0.195-0.857
	c-0.028-0.611,0.011-1.224,0.115-1.826c0.09-0.954,0.151-1.556,0.151-1.646c-0.073-2.076-0.024-4.155,0.144-6.226l-0.137-1.162
	c-0.16-0.064-0.334-0.096-0.507-0.09c-0.144-0.359-0.684-1.045-0.737-1.383c0.088-0.091,0.383-0.125,1.066-0.125
	c0.898-0.488,1.889-0.773,2.907-0.837c1.024-0.18,2.08,0.001,2.989,0.512c0.149,0.298,0.328,2.034,0.684,5.271
	c-0.205,4.843,0.301,8.661,1.484,11.621c0.617,0.311,1.328,0.365,1.983,0.152c0.675-0.194,1.359-0.344,2.052-0.449
	c0.328,0.297,1.094,0.18,2.428-0.235c0.164-1.058,0.582-2.058,1.219-2.912c0.021-1.952,0.15-3.901,0.383-5.839
	c-0.089-0.871-0.205-1.95-0.417-3.174c-0.411-3.059-0.854-3.459-0.685-4.615c0.447-0.186,0.881-0.408,1.293-0.664l3.462-0.062
	c1.956,0.062,1.956,0.062,2.517,1.681c0.444,3.176,0.979,6.53,1.635,10.064c0.117,0.09,0.144,0.36,0.267,0.754
	c0.157,0.855,0.415,1.689,0.766,2.484c0.623,1.528,1.013,2.4,1.04,2.58c0.096-0.217,0.254-0.399,0.454-0.523
	c0.201-0.123,0.435-0.182,0.668-0.168c0.14,0.238,0.259,0.488,0.356,0.746c1.181-0.523,2.389-0.986,3.617-1.383
	c0.445-0.602,0.535-1.653,0.473-3.182c-0.09-1.072-0.178-2.691-0.205-5.092c-0.15-2.303-0.24-4.15-0.355-5.361
	c0.207-0.352,0.27-0.771,0.178-1.168c-0.116-1.143,0.205-0.963,2.25-1.288c-0.004-0.105,0.027-0.209,0.086-0.296
	c0.06-0.087,0.144-0.153,0.242-0.188c0.144,0.27,0.74,0.45,1.834,0.422L143.945,26.309z M97.788,46.806
	c0.117-0.343,0.207-0.694,0.267-1.052h-0.267c-0.124,0.336-0.184,0.693-0.178,1.052H97.788z M96.488,48.542h0.684
	c0.339-0.467,0.497-1.042,0.445-1.618H97.35c-0.01,0.066-0.036,0.129-0.077,0.182c-0.041,0.054-0.094,0.096-0.155,0.122
	c-0.356-0.152-0.506-0.332-0.506-0.574c-0.178,0.09-0.355,0.484-0.444,1.204c-0.135,0.199-0.253,0.41-0.356,0.629
	c0.222-0.064,0.454-0.086,0.684-0.063L96.488,48.542z M99.184,40.303c-0.09,0.056-0.09,0.146,0,0.388V40.303z M98.321,41.527
	c0.094-0.204,0.174-0.414,0.239-0.629h0.178c-0.018,0.229-0.078,0.451-0.178,0.656L98.321,41.527z M94.026,45.871
	c0.267-0.062,0.267-0.152,0.355-0.242h-0.355V45.871z M94.115,45.478c0.035-0.034,0.077-0.06,0.124-0.075
	c0.046-0.016,0.095-0.021,0.143-0.015v-0.235h-0.089L94.115,45.478z M95.182,45.989c0.41-1.317,0.746-2.657,1.006-4.013h-0.055
	c-0.585,1.268-0.958,2.623-1.102,4.013H95.182z M98.232,37.75v-0.18c-0.089,0.09-0.178,0.09-0.089,0.18H98.232z M102.118,31.636
	c-0.089-0.09-0.062-0.325,0-0.692h-0.179c-0.193,0.254-0.316,0.555-0.355,0.872c0.089,0,0.089,0,0.178,0.091L102.118,31.636z
	 M94.053,44.488v-0.297h-0.089c-0.089,0.062-0.089,0.151-0.089,0.297H94.053z M96.105,40.746c0.089-0.063,0.089-0.242,0.178-0.388
	c-0.089,0-0.089,0-0.178,0.09V40.746z M96.372,39.785c0.178,0,0.239-0.146,0.328-0.389c-0.044,0.004-0.088-0.002-0.129-0.018
	s-0.079-0.04-0.11-0.072L96.372,39.785z M103.335,27.291h0.117c-0.089,0-0.089,0-0.089-0.09L103.335,27.291z M95.333,40.594
	c0-0.18,0-0.325,0.089-0.415h-0.178c-0.089,0.056-0.089,0.235-0.089,0.388L95.333,40.594z M101.352,30.079h0.049v-0.18h-0.09
	L101.352,30.079z M98.615,36.555c0.412-1.126,0.908-2.218,1.484-3.266c0.18-0.521,0.387-1.031,0.623-1.529
	c0.243-0.443,0.395-0.934,0.444-1.438h-0.179c-0.238,0.54-0.594,1.017-0.861,1.585c-0.444,0.781-0.622,1.383-0.533,1.59
	c-0.684,0.568-1.039,1.584-1.066,3.113L98.615,36.555z M94.115,42.337v-1.052c0.046-0.105,0.076-0.217,0.089-0.332
	c-0.268,0.413-0.421,0.891-0.444,1.384H94.115z M97.015,35.952h0.178c-0.089,0-0.089,0-0.089-0.09L97.015,35.952z M100.436,29.242
	h0.088V29.18h-0.088V29.242z M99.847,30.626c0.232-0.215,0.321-0.484,0.232-0.63c-0.054,0.09-0.144,0.09-0.232,0.146V30.626z
	 M94.381,40.836c0.568-1.373,1.043-2.782,1.423-4.22c-0.733,1.331-1.301,2.748-1.689,4.22H94.381z M99.744,29.367l0.15-0.152h-0.15
	V29.367z M94.648,36.582h0.15v-0.236h-0.15V36.582z M92.726,27.174c-0.041-0.009-0.078-0.031-0.105-0.064
	c-0.027-0.032-0.043-0.072-0.045-0.115c-0.417-0.145-0.595-0.325-0.506-0.567c0.417,0,0.684,0.271,0.834,0.747H92.726z
	 M90.948,32.119l-0.062-0.062c-0.356-0.18-0.595-0.27-0.773-0.36c-0.561-0.691-0.978-0.988-1.368-0.988
	c-0.089,0.242,0.561,0.754,1.895,1.383L90.948,32.119z M89.771,28.883h0.178v-0.09h-0.178V28.883z M87.583,29.871
	c0-0.09,0-0.09,0.089-0.145c-0.024,0.021-0.053,0.037-0.083,0.047c-0.03,0.01-0.063,0.012-0.095,0.008L87.583,29.871z M90.455,48.75
	c0.178-0.692,0.356-1.439,0.472-2.158c0.61-1.426,1.138-2.885,1.58-4.373c0.568-2.767,0.951-5.125,1.156-6.917
	c-0.684-0.479-1.407-0.901-2.161-1.259c-1.613-0.942-3.114-2.068-4.474-3.355c-0.998-0.701-2.047-1.323-3.14-1.86
	c-0.196-0.225-0.312-0.51-0.328-0.81c0-0.324,0.622-0.691,1.867-1.078c0-0.326,0.444-0.478,1.368-0.541
	c1.956-0.837,3.051-1.286,3.201-1.196l1.005,0.567c0.239,0.574,1.067,1.321,2.462,2.337c0.622,0.608,1.31,1.143,2.052,1.592
	c1.245,0.836,1.983,1.168,2.25,1.078c0.107-0.252,0.283-0.471,0.506-0.629c0.071-0.771,0.251-1.528,0.533-2.248h-0.143
	c0.086-0.303,0.205-0.596,0.355-0.871c0.09-0.293,0.09-0.607,0-0.9l0.444,0.035c-0.073,0.628-0.231,1.242-0.472,1.826
	c0.321,0.09,0.499-0.297,0.588-0.629c0.267-0.54,0.623-1.35,1.245-2.456c0.155-0.264,0.397-0.464,0.684-0.567
	c0.595,0,1.513,0.118,2.736,0.235l1.155,0.512c0.117,0.242,0.254,0.474,0.412,0.692c-0.201,0.26-0.352,0.556-0.445,0.872
	c-0.438,0.344-0.741,0.834-0.855,1.383c-0.171,0.496-0.379,0.977-0.623,1.439c-0.425,1.79-1.02,3.535-1.777,5.209
	c-0.979,2.459-1.809,4.978-2.483,7.539c-0.189,1.5-0.528,2.977-1.013,4.406c0.217,1.094,0.082,2.228-0.383,3.238
	c-0.154,0.113-0.344,0.166-0.533,0.145c-0.739-0.324-2.989-0.387-6.786-0.09c-0.232-0.09-0.5-0.234-0.472-1.135L90.455,48.75z
	 M80.113,51.357l-0.205-0.359c0.205,0.09,0.383,0.09,0.472,0.145v0.242L80.113,51.357z M79.757,50.756v-0.063h0.062v0.063H79.757z
	 M79.846,48.598h1.635c-0.074-0.225-0.125-0.457-0.15-0.692h-0.472c-0.107,0.105-0.181,0.24-0.212,0.388
	c-0.266,0.027-0.534,0.027-0.8,0V48.598z M79.053,44.73h0.055v-0.09h-0.089L79.053,44.73z M79.019,44.523h0.089v-0.181h-0.089
	V44.523z M79.019,43.775h0.062v-0.172h-0.062V43.775z M79.08,40.719c0.062-0.09,0.062-0.152,0.15-0.208l-0.15-0.034V40.719z
	 M79.196,39.818h0.062v-0.117h-0.062V39.818z M81.447,30.709c0.024-0.561-0.015-1.123-0.116-1.674c-0.092,0.554-0.092,1.119,0,1.674
	H81.447z M77.835,31.912l0.062-0.063c0-0.062,0-0.062-0.062-0.062V31.912z M81.481,26.219c0.444-1.287,0.321,9.587,0.321,8.958
	c-0.266,0.027-0.534,0.027-0.8,0c-0.178,1.196,0.178-9.65,0.267-8.958H81.481z M79.935,33.137c-0.055-0.063-0.055-0.117-0.116-0.18
	c-0.031,0.043-0.047,0.096-0.047,0.148c0,0.054,0.017,0.105,0.047,0.148L79.935,33.137z M70.044,47.939
	c-0.045-0.071-0.067-0.156-0.062-0.242c0.062,0,0.116,0,0.116,0.09v0.181L70.044,47.939z M79.935,32.805
	c0.042-0.432,0.011-0.865-0.089-1.287h-0.144c-0.007,0.424,0.032,0.846,0.116,1.26L79.935,32.805z M78.827,37.184
	c0.18-0.574,0.279-1.17,0.294-1.771c-0.055-0.504-0.055-1.044-0.144-1.557c-0.089-0.746-0.301-1.168-0.623-1.195
	c0.205,0.422,0.294,1.916,0.355,4.523H78.827z M73.758,38.442h0.062v-0.18h-0.062V38.442z M75.297,35.676h0.089v-0.117h-0.089
	V35.676z M71.48,41.278c-0.06-0.11-0.09-0.233-0.089-0.359c-0.062,0.18-0.123,0.304-0.062,0.359H71.48z M81.994,30.018
	c-0.089-0.872-0.267-2.187-0.561-3.93c-0.136-0.044-0.282-0.044-0.417,0c-0.064,0.356-0.094,0.717-0.089,1.079
	c0.212,0.63,0.568,1.585,0.923,2.815L81.994,30.018z M78.943,29.657c0.018-0.298-0.031-0.596-0.144-0.872
	c-0.144,0.256-0.206,0.551-0.178,0.845L78.943,29.657z M74.839,34.334H74.9v-0.063h-0.062V34.334z M75.79,32.32h0.055v-0.055H75.79
	V32.32z M66.897,45.623c0.178-0.051,0.336-0.154,0.453-0.301c0.117-0.145,0.186-0.322,0.197-0.509
	c-0.182-0.032-0.36-0.081-0.534-0.146c-0.069,0.174-0.18,0.328-0.321,0.449L66.897,45.623z M66.336,41.009h0.055v-0.056h-0.055
	V41.009z M74.278,28.82c0.042-0.234,0.102-0.466,0.178-0.691c-0.123,0-0.24,0.27-0.301,0.691H74.278z M75.489,25.97
	c0.062,0,0.062-0.062,0.15-0.09l-0.15-0.09V25.97z M55.728,45.173c0.472-0.146,0.739-0.415,0.739-0.691
	c-0.26-0.622-0.428-1.279-0.5-1.95c-0.205,0-0.267,0.124-0.267,0.332L55.728,45.173z M55.344,38.139
	c0.063-0.021,0.123-0.053,0.178-0.09l0.472,9.795c-0.074,0.004-0.146-0.019-0.205-0.063L55.344,38.139z M62.068,38.678
	c-0.239-0.539-0.506-0.781-0.684-0.81c0.089,0.181,0.294,0.415,0.506,0.774L62.068,38.678z M61.152,37.627h0.144v-0.063h-0.144
	V37.627z M60.734,36.609h0.062v-0.063h-0.062V36.609z M64.838,39.515c-0.078-0.353-0.22-0.688-0.417-0.989
	c-0.055-0.063-0.623-0.898-1.539-2.4c-0.917-1.501-1.368-2.275-1.512-2.275c0.167,0.889,0.437,1.754,0.8,2.58
	c0.534,0.691,1.368,1.764,2.551,3.085H64.838z M60.276,35.8v-0.18c-0.064-0.038-0.133-0.068-0.205-0.09
	c-0.002,0.081,0.017,0.163,0.055,0.235L60.276,35.8z M55.208,42.025h0.089v-0.117h-0.089V42.025z M57.622,34.61
	c0.472,0,0.534-0.298,0.178-0.837c0-0.132,0.021-0.263,0.062-0.388v-0.45c-0.057-0.16-0.162-0.297-0.301-0.394
	c-0.116,0.422-0.178,0.691-0.116,0.754L57.622,34.61z M58.806,28.26c0.062-0.063,0.062-0.063,0.123-0.063
	c0-0.629-0.089-1.044-0.301-1.106l-0.116,0.118L58.806,28.26z M55.728,38c0.042-1.441-0.008-2.883-0.151-4.316
	c-0.019-0.609-0.008-1.219,0.035-1.826c-0.019-0.645-0.193-1.273-0.506-1.834c-0.205,0.125-0.178,0.574,0,1.322
	c0.119,0.53,0.149,1.077,0.089,1.618c0.116,1.916,0.267,3.715,0.383,5.36L55.728,38z M57.684,31.082
	c-0.166-0.982-0.424-1.945-0.773-2.877c-0.075,0.254-0.114,0.517-0.116,0.781c0,0.387-0.301-0.242-0.089,0.477
	c0.104,0.543,0.253,1.074,0.444,1.592L57.684,31.082z M55.789,29.049h0.205v-0.063h-0.205V29.049z M55.728,28.447h0.062v-0.18H55.7
	L55.728,28.447z M79.75,50.168c-0.08-0.17-0.128-0.354-0.144-0.54c-0.706-0.04-1.41-0.12-2.106-0.242
	c-0.206-0.235-0.144-1.106,0.089-2.573c0-1.557,0.123-3.652,0.267-6.35c0.113-0.835,0.143-1.678,0.089-2.519
	c0.047-0.837-0.031-1.677-0.232-2.49c0.055-0.056,0.116-0.056,0.178-0.118c-0.094-0.303-0.165-0.612-0.212-0.926
	c0.123-0.09,0.212-0.208,0.178-0.271c-0.034-0.062-0.205-0.81-0.178-2.248c0.062-1.556-0.321,9.436-0.321,9.38
	c0-0.055,0-0.359-0.089-0.781c-0.004-0.973,0.064-1.943,0.206-2.906c-0.062-2.58-0.062-3.804,0-3.506l-0.151-0.298
	c-0.703,1.515-1.493,2.985-2.367,4.406c-0.095,0.724-0.468,1.38-1.04,1.826c-0.65,1.314-1.094,2.394-1.423,3.112
	c-0.453,0.664-0.784,1.404-0.978,2.187c-0.11,0.748-0.394,1.459-0.828,2.075l-3.345-0.18c-0.241,0.082-0.492,0.134-0.746,0.152
	c-0.534-0.063-0.684-1.26-0.979-1.682c-0.055-0.415-0.766-1.383-1.922-2.767c-0.917-1.384-2.285-3.417-4.029-6.115
	c-0.062,0-0.062,0-0.116,0.063c-0.055,0.062-0.062,0.774-0.089,2.006c-0.039,0.649-0.009,1.302,0.089,1.944
	c0.017,0.48-0.013,0.963-0.089,1.438c0.267,3.058-0.178-4.103-0.39-1.384c-0.004,0.674,0.107,1.344,0.328,1.979
	c-0.076,0.334-0.115,0.675-0.116,1.018c0.028,0.838,0.136,1.672,0.322,2.49c0.193,0.833,0.273,1.689,0.239,2.545
	c-0.062,0.055-0.062,0.235-0.062,0.505c-1.067,0.063-2.606,0.181-4.617,0.45c-0.321-0.021-0.629-0.135-0.889-0.326
	c0-0.062,0.116-0.871,0.444-2.4c0.055-0.055,0.055-0.117,0.116-0.145c-0.004-0.048-0.026-0.092-0.062-0.125l-0.116-5.479
	c-0.116-2.131,0.206,6.08-0.178,4.614c0.062-0.124,0.062-0.18,0.15-0.214c-0.089-0.658-0.212-2.484-0.328-5.535
	c0.051-0.898,0.03-1.801-0.062-2.697c-0.144-1.529-0.232-2.428-0.232-2.767c-0.048-0.765,0.021-1.532,0.205-2.276l-0.062-2.572
	c0.062-0.748,0.567-0.692,0.684-2.131v-0.838c0.055,0,0.055,0,0.117-0.062c0.066-0.267,0.117-0.537,0.15-0.81
	c-0.212,0-0.417,0.27-0.479,0.899c-0.088,0.187-0.166,0.378-0.232,0.574l-0.356-0.091c-0.167-0.486-0.286-0.989-0.355-1.5
	c-0.034-0.54,0.321-0.864,0.978-0.927c0.062-0.001,0.122-0.015,0.177-0.041c0.055-0.026,0.104-0.064,0.145-0.111
	c0.479,0,1.272,0,2.428-0.055c0.8-0.042,1.601-0.042,2.401,0c0.568,0.45,0.684,1.826,1.183,2.248c0.089,0.422,0-0.207,0.329,0.567
	c0.12,0.329,0.259,0.649,0.417,0.962c0.497,1.572,1.109,3.105,1.833,4.586c0,0.629,0.8,1.557,2.401,4.842
	c0.058,0.048,0.105,0.107,0.141,0.174s0.057,0.139,0.064,0.214c0.072,0.026,0.143,0.056,0.212,0.09
	c0.055,0.45,1.368,1.528,1.368,1.979h0.123c0.588-1.052,1.211-2.159,1.806-3.265c0.571-1.084,1.019-2.23,1.333-3.418
	c0.486-1.244,1.05-2.454,1.69-3.625c0.178-0.691,0.499-1.383,0.827-2.248c0.294-1.078,0.506-1.618,0.506-1.673
	c0.188-0.58,0.577-1.071,1.095-1.384c0.457,0.08,0.925,0.049,1.368-0.09c0.693,0.13,1.378,0.299,2.052,0.505
	c0.279,0.028,0.56-0.035,0.8-0.18c1.011-0.09,2.028,0.074,2.962,0.477c0.089,0.18,0.15,0.395,0.301,0.754
	c-0.123,1.618-0.034,2.635,0.322,3.057c-0.104,0.574-0.104,1.162,0,1.736c0,0.27-0.062,1.079-0.089,2.518
	c-0.121,0.344-0.181,0.707-0.178,1.072c0.117,2.014,0.65-6.766,1.006-2.663c0.034,0.63,0.062,3.058,0.212,7.367
	c-0.241,1.514-0.201,3.06,0.116,4.559c0.073,1.339,0.035,2.681-0.116,4.013c-0.1,0.654-0.16,1.314-0.178,1.978
	c-0.106,0.077-0.228,0.132-0.357,0.157c-0.128,0.026-0.261,0.025-0.389-0.005l-0.684-0.304c-0.778-0.105-1.563-0.135-2.346-0.09
	c-0.074,0.16-0.113,0.334-0.116,0.512L79.75,50.168z M52.287,41.092v-0.09h0.39v0.09H52.287z M51.788,41.568v-0.09h0.294v0.049
	L51.788,41.568z M43.942,47.754c0.942-0.056,1.877-0.206,2.791-0.45c0.267-0.208,0.583-0.341,0.917-0.388
	c0,0.09,0.178,0.325,0.889,0.449c0.063-0.096,0.151-0.173,0.255-0.221c0.104-0.048,0.22-0.064,0.333-0.049
	c-0.105-0.738-0.254-1.471-0.444-2.192c-1.184-0.118-1.779-0.118-1.779-0.118c0-0.18,0.089,0,0.39,0.512
	c-0.137,0.542-0.315,1.072-0.534,1.584c-0.328,0.091-1.005,0.242-2.312,0.45v0.181c-0.173-0.008-0.346,0.023-0.506,0.09V47.754z
	 M49.722,34.658c0.04-0.034,0.087-0.061,0.138-0.076s0.104-0.02,0.156-0.014v-0.324h-0.328L49.722,34.658z M47.765,36.879h0.206
	v-0.27h-0.178L47.765,36.879z M49.072,32.729c0-1.023-0.15-1.529-0.684-1.529c-0.045,0.535,0.079,1.071,0.356,1.529H49.072z
	 M48.627,30.93h0.103v-0.063h-0.089L48.627,30.93z M48.046,35.717c-0.119-1.399-0.347-2.787-0.684-4.15h-0.329
	c-0.232,2.186-0.089,3.625,0.417,4.191L48.046,35.717z M37.293,47.968c-0.089-0.36-0.479-0.54-1.368-0.54
	c0,0.242,0.178,0.422,0.684,0.512L37.293,47.968z M45.111,35.994c-0.684-0.18-1.183-0.27-1.272-0.18
	c-0.089,0.09,0.089,0.09,0.294,0.18H45.111z M37.614,45.506v-0.152c-0.247-0.084-0.506-0.123-0.766-0.118
	c0.068,0.192,0.205,0.353,0.383,0.45L37.614,45.506z M48.73,30.502c0-0.423,0.144-0.99,0.232-1.585
	c0.1-0.033,0.186-0.099,0.245-0.187c0.059-0.087,0.088-0.191,0.083-0.297l-0.862-1.557c-0.04-0.035-0.087-0.061-0.138-0.076
	c-0.05-0.016-0.104-0.021-0.156-0.014c0.039,1.281,0.208,2.557,0.506,3.805L48.73,30.502z M41.739,35.744h0.294v-0.09h-0.294V35.744
	z M34.598,47.822c-0.228-0.174-0.403-0.41-0.503-0.681s-0.123-0.565-0.064-0.849h-0.294c-0.079,0.121-0.133,0.256-0.159,0.398
	c-0.025,0.143-0.021,0.287,0.013,0.428c0.034,0.141,0.095,0.273,0.182,0.388c0.086,0.115,0.195,0.211,0.32,0.28L34.598,47.822z
	 M46.773,29.035c0.534-0.691,0.322-1.384-0.533-2.131c-0.117,0.359-1.04,1.079-0.684,1.529c0.259,0.22,0.489,0.473,0.684,0.754
	L46.773,29.035z M40.05,35.627v-0.09c-0.729-0.089-1.465-0.101-2.196-0.035c0.294,0.09,0.506,0.09,0.595,0.18L40.05,35.627z
	 M31.992,43.803v-0.691h-0.178c-0.027,0.234,0.003,0.473,0.089,0.691H31.992z M34.598,42.42c0-0.602-0.062-1.619-0.123-3.209
	c-0.134,1.064-0.152,2.141-0.055,3.209H34.598z M34.509,38.885h0.089v-0.332h-0.089V38.885z M34.625,37.868h0.178v-0.332h-0.206
	L34.625,37.868z M43.1,24.836h0.383v-0.09H43.1V24.836z M45.645,34.658c0.337-1.473,0.203-3.016-0.383-4.406
	c-0.233-0.367-0.552-0.672-0.929-0.885c-0.377-0.214-0.8-0.33-1.232-0.34c-1.368,0-3.201,0.692-5.335,2.076
	c-0.562,0.91-0.926,1.932-1.067,2.994c1.484,0,3.885,0.271,6.963,0.568L45.645,34.658z M41.5,24.801
	c0.298,0.017,0.596-0.002,0.889-0.055h-0.978L41.5,24.801z M40.016,49.518c-2.392,0.009-4.781-0.181-7.142-0.568
	c-0.57-0.438-1.161-0.846-1.771-1.224c-1.929-2.4-2.88-5.534-2.791-9.317c-0.014-0.877,0.076-1.753,0.267-2.608
	c0.15-2.006,0.178-2.85,0.178-2.519c-0.116-0.09,0.301-0.691,1.012-1.68c0.417-1.331,1.025-2.592,1.806-3.742
	c0.387-0.271,0.727-0.605,1.005-0.99c0.684-0.387,1.717-1.141,3.14-2.033c1.012-0.304,2.517-0.692,4.508-1.259
	c1.258-0.143,2.526-0.173,3.79-0.09c1.895,0.146,3.078,0.505,3.379,1.107c0.889,0.18,1.957,1.557,3.29,4.102
	c0.055,1.024,0.233,2.768,0.472,5.244c0.089,0.063,0.089,0.422,0.062,0.988c0.126,0.094,0.228,0.217,0.294,0.36
	c-0.13,0.202-0.219,0.429-0.26,0.667c-0.042,0.238-0.034,0.481,0.021,0.717c0.022,0.504,0.082,1.006,0.178,1.5
	c-0.499,0.416-1.895,0.479-4.385,0.236c-0.499,0.09-1.512,0.332-3.023,0.539c-2.052,0-3.167-0.145-3.167-0.324
	c-0.875,0.008-1.746-0.125-2.579-0.395c-0.889,0.152-1.689,0.214-2.189,0.304c-0.241,0.337-0.357,0.748-0.328,1.162
	c-0.062,2.075,0.417,3.542,1.484,4.255c0.5,0,0.684,0,0.793-0.084c0.684-0.063,4.295-0.242,10.582-0.512
	c0.116-0.359,0.41-0.422,0.8-0.242c0.39,0.18,0.588,0.27,0.889,0.359c-0.123,0.285-0.194,0.59-0.212,0.9
	c0,0.691,0.445,2.311,0.417,2.877c0.013,0.43-0.136,0.848-0.417,1.17c-0.499,0.234-2.1,0.566-5.301,1.168
	c-1.601,0-3.112,0.09-4.501,0.146c-0.089-0.09-0.178-0.09-0.301-0.18V49.518z M18.537,41.099h0.096v-0.09h-0.089L18.537,41.099z
	 M13.564,42.088v-0.207c0.164-0.041,0.331-0.063,0.5-0.063l0.178,0.215l0.506,0.09c0-0.215,0-0.45,0.089-0.512h-2.052
	c0,0.062,0.089,0.214,0.151,0.449L13.564,42.088z M11.84,43.604c-0.04-0.095-0.058-0.196-0.055-0.299
	c-0.178-0.062-0.239-0.152-0.328-0.152v-0.145c-0.089,0-0.089,0.207-0.116,0.596H11.84z M5.944,45.554h0.239
	c0-0.54-2.517-1.287-2.579-1.646c-0.267-0.09,1.867,1.017,1.778,1.106L5.944,45.554z M4.795,42.613v-0.809H4.378
	c-0.066,0.278-0.044,0.57,0.062,0.836L4.795,42.613z M2.982,41.527c-0.041-0.797-0.19-1.583-0.445-2.338
	c-0.021,0.781,0.02,1.563,0.123,2.338H2.982z M5.034,36.437c0.024-0.462,0.003-0.925-0.062-1.384
	c-0.126,0.451-0.196,0.916-0.205,1.384H5.034z M4.952,34.963H5.13v-0.145H4.952V34.963z M8.66,32.237H8.373
	c-0.14,0.687-0.033,1.399,0.301,2.013L8.66,32.237z M9.433,32.328c0.294-4.221-0.089-3.895-0.178,0H9.433z M8.455,30.293
	c0.083-0.547,0.063-1.105-0.062-1.646c-0.089,0.747-0.089,1.252-0.116,1.646H8.455z M2.661,33.227H2.75V33.02H2.661V33.227z
	 M1.888,37.688c0.111-1.057,0.021-2.126-0.267-3.147c-0.062,0.09,0,1.141,0,3.147H1.888z M2.572,32.569h0.24l0.055-1.501h-0.24
	L2.572,32.569z M24.55,2.548v-0.09c0.134,0.05,0.274,0.081,0.417,0.09H24.55z M2.661,30.529h0.055v-0.893H2.626L2.661,30.529z
	 M2.661,29.188h0.062v-0.152H2.661V29.188z M2.661,28.827H2.75v-0.692H2.661V28.827z M2.661,27.174H2.75v-0.691H2.661V27.174z
	 M2.661,26.129H2.75v-0.512H2.661V26.129z M8.407,21.211c0.003-0.191-0.049-0.379-0.15-0.54c-0.065,0.172-0.095,0.356-0.089,0.54
	H8.407z M2.51,24.628h0.089v-0.055H2.51V24.628z M2.51,23.521h0.089V23.37h0.027L2.51,23.521z M2.51,23.314h0.089v-0.602H2.51
	V23.314z M9.351,16.3h0.171v-0.062H9.351V16.3z M1.73,22.525h0.062v-0.152H1.73V22.525z M2.654,22.525
	c0.059-0.604,0.008-1.213-0.15-1.798c-0.178,0.59-0.156,1.223,0.062,1.798H2.654z M17.648,1.289h0.089V1.234h-0.089V1.289z
	 M3.844,29.277c0-1.384,0-3.57-0.205-6.323c0.077-1.417,0.077-2.837,0-4.254H3.461c0,0.146,0,0.297-0.089,0.36
	c-0.062,2.767,0,4.192,0.151,4.254c-0.125,2.036-0.087,4.079,0.116,6.108L3.844,29.277z M9.412,13.782c0.089,0,0.089,0,0.178-0.09
	v-0.525H9.446L9.412,13.782z M5.588,15.4l2.524,0.214v-0.512l-2.551-0.242L5.588,15.4z M5.588,14.266l2.551,0.146v-0.146H5.588z
	 M14.152,4.865c0.239,0,0.329-0.062,0.417-0.27c-0.173,0.018-0.343,0.058-0.506,0.118L14.152,4.865z M1.621,19.392
	c0.089-0.056,0.089-0.208,0.178-0.27h-0.15L1.621,19.392z M2.216,16.369h0.232v-0.36H2.182L2.216,16.369z M2.51,14.508h0.062v-0.146
	H2.51V14.508z M2.599,13.699h0.089v-0.145H2.599V13.699z M8.584,6.45h0.089V6.387H8.584V6.45z M11.574,3.336
	c0.12-0.411,0.358-0.777,0.684-1.051c0.089,0.09,0.239,0.09,0.417,0.18l0.089-0.955h-1.245L11.574,3.336z M3.817,12.377
	c0.533-1.936,0.85-3.927,0.944-5.935C4.52,6.453,4.282,6.39,4.077,6.263c-0.472,2.815-0.684,4.842-0.561,6.115H3.817z M2.216,7.432
	C1.683,7.432,1.771,8.511,2.216,7.432L2.216,7.432z M12.613,49.379L8.14,47.939c-1.316-0.43-2.608-0.93-3.872-1.5
	c-0.227-0.412-0.476-0.813-0.745-1.197c0-0.242-2.812-4.047-3.345-5.533C0.116,39.017,0.062,38.152,0,36.893
	c0-1.95,0.089-4.703,0.267-8.363c0-1.196,0.055-2.663,0.178-4.371c-0.178-4.295-0.139-8.596,0.116-12.887
	C1.033,6.747,6.43-1.18,11.081,0.341c0.411-0.062,1.512-0.125,3.256-0.242c1.114-0.106,2.235-0.127,3.352-0.062
	c0.826,0.078,1.657,0.078,2.483,0c0.54,0.185,1.097,0.315,1.662,0.387c0.595-0.208,1.005,0.989,1.245,1.017
	c0.14,0.305,0.382,0.55,0.684,0.692l0.328,0.207c-0.12,0.024-0.232,0.077-0.328,0.152c0.028,0.726-0.041,1.452-0.206,2.158
	l-0.15,1.702c-1.45,1.259-5.951,0.54-7.675,0.09c-1.539-0.145-2.606,0.692-3.584,1.833c-0.206,0.208-0.588,0.117-0.766,0.387
	c-4.104,5.963-2.935,21.9-1.484,26.183c0.062,2.074,1.45,3.459,1.929,4.738c0.513,0.432,1.166,0.656,1.833,0.629
	c1.133-0.041,2.257-0.213,3.352-0.512c2.336-0.296,4.691-0.416,7.045-0.359c0.113,0.094,0.196,0.219,0.239,0.359
	c0.24,4.191,0.356,6.654,0.267,7.313c-0.267,0.746-0.623,1.168-1.211,1.258c-0.625,0.109-1.241,0.268-1.84,0.479
	c-1.072-0.089-2.15-0.02-3.201,0.207c-0.917,0.125-1.922,0.27-2.846,0.449c-0.168,0.24-0.408,0.42-0.684,0.512
	c-0.328-0.512-1.778-0.332-2.107-0.566L12.613,49.379z"/>
<path fill="#8D5D09" d="M84.888,13.628V0.726h3.345c0.872-0.041,1.726,0.256,2.387,0.83c0.298,0.274,0.534,0.61,0.691,0.985
	c0.157,0.375,0.232,0.78,0.219,1.188c0.013,0.691-0.196,1.369-0.595,1.93c-0.409,0.56-0.988,0.968-1.648,1.163v0.048
	c0.781,0.045,1.516,0.392,2.052,0.968c0.255,0.279,0.454,0.605,0.584,0.961c0.13,0.357,0.189,0.735,0.175,1.115
	c0.022,0.49-0.058,0.98-0.234,1.438s-0.446,0.873-0.792,1.219c-0.374,0.352-0.813,0.623-1.292,0.802s-0.988,0.259-1.499,0.235
	L84.888,13.628z M85.77,1.556v5.001h1.771c0.8,0.053,1.591-0.194,2.223-0.692c0.278-0.24,0.498-0.541,0.643-0.88
	s0.21-0.708,0.192-1.077c0-1.549-0.882-2.317-2.702-2.317L85.77,1.556z M85.77,7.353v5.459h2.367c0.823,0.066,1.64-0.18,2.292-0.692
	c0.271-0.269,0.482-0.593,0.619-0.95c0.137-0.358,0.197-0.742,0.175-1.125c0-1.764-1.197-2.656-3.584-2.656L85.77,7.353z
	 M100.06,13.634v-1.867h-0.048c-0.279,0.613-0.717,1.139-1.266,1.521c-0.544,0.368-1.185,0.563-1.84,0.561
	c-0.375,0.023-0.75-0.031-1.104-0.161s-0.676-0.331-0.948-0.593c-0.247-0.238-0.441-0.527-0.569-0.846
	c-0.128-0.32-0.188-0.664-0.176-1.008c0-1.592,1.033-2.561,3.16-2.898l2.791-0.436c0-1.958-0.739-2.947-2.223-2.947
	c-1.083,0.042-2.115,0.471-2.914,1.21V5.174c0.411-0.312,0.875-0.546,1.368-0.692c0.522-0.178,1.07-0.267,1.621-0.263
	c0.403-0.023,0.807,0.043,1.182,0.193c0.376,0.15,0.715,0.382,0.992,0.678c0.557,0.729,0.829,1.64,0.767,2.56v5.99L100.06,13.634z
	 M97.549,9.041c-0.714,0.062-1.402,0.298-2.004,0.692c-0.206,0.186-0.365,0.42-0.465,0.68c-0.1,0.262-0.138,0.543-0.11,0.82
	c-0.014,0.256,0.025,0.511,0.116,0.75c0.091,0.238,0.231,0.454,0.411,0.634c0.414,0.368,0.954,0.56,1.505,0.532
	c0.412,0.006,0.82-0.08,1.196-0.25c0.375-0.172,0.71-0.424,0.979-0.738c0.61-0.698,0.927-1.609,0.883-2.539V8.675L97.549,9.041z
	 M109.499,13.191c-0.732,0.431-1.567,0.647-2.415,0.63c-0.561,0.021-1.118-0.082-1.634-0.305s-0.976-0.559-1.349-0.982
	c-0.788-0.937-1.198-2.14-1.148-3.369c-0.053-1.324,0.412-2.615,1.293-3.597c0.414-0.456,0.92-0.815,1.484-1.054
	s1.174-0.351,1.785-0.33c0.704-0.01,1.403,0.129,2.052,0.408v0.94c-0.647-0.397-1.391-0.605-2.147-0.602
	c-0.493-0.016-0.983,0.08-1.435,0.281c-0.45,0.201-0.852,0.502-1.172,0.881c-0.706,0.859-1.063,1.957-0.999,3.071
	c-0.046,1.028,0.277,2.038,0.91,2.844c0.291,0.354,0.658,0.635,1.072,0.822c0.415,0.188,0.867,0.279,1.322,0.264
	c0.855,0.014,1.693-0.248,2.394-0.747L109.499,13.191z M116.887,13.6l-4.351-4.565V13.6h-0.835V0h0.835v8.771l4.104-4.35h1.08
	l-4.303,4.448l4.658,4.76L116.887,13.6z M128.378,1.556v12.072h-0.862V1.556h-3.68v-0.83h8.209v0.83H128.378z M134.855,13.855
	c-0.592,0.032-1.184-0.071-1.73-0.302c-0.548-0.231-1.036-0.584-1.43-1.033c-0.811-0.961-1.229-2.197-1.17-3.459
	c-0.07-1.307,0.366-2.59,1.218-3.576c0.413-0.432,0.911-0.77,1.464-0.99c0.552-0.221,1.145-0.319,1.737-0.29
	c0.573-0.032,1.146,0.066,1.677,0.288c0.53,0.221,1.004,0.561,1.388,0.992c0.812,0.994,1.22,2.262,1.143,3.549
	c0.05,1.256-0.356,2.486-1.143,3.459c-0.396,0.443-0.884,0.794-1.429,1.025c-0.545,0.23-1.135,0.336-1.725,0.309V13.855z
	 M134.903,4.96c-0.479-0.022-0.958,0.063-1.399,0.251c-0.443,0.188-0.838,0.473-1.158,0.834c-0.688,0.855-1.029,1.943-0.958,3.043
	c-0.054,1.052,0.277,2.086,0.931,2.906c0.314,0.369,0.709,0.66,1.152,0.853s0.924,0.278,1.405,0.254
	c0.476,0.029,0.952-0.054,1.392-0.242s0.829-0.478,1.139-0.844c0.58-0.894,0.89-1.94,0.89-3.009c0-1.07-0.31-2.115-0.89-3.009
	c-0.313-0.352-0.701-0.628-1.134-0.808C135.839,5.01,135.371,4.932,134.903,4.96z M155.568,13.634l-7.572-10.375
	c-0.147-0.203-0.285-0.413-0.41-0.63l-0.117-0.193h-0.048c0.011,0.184,0.011,0.369,0,0.553v10.64h-0.882V0.726h0.684l7.524,10.376
	c0.164,0.215,0.335,0.484,0.547,0.823c0-0.437,0-0.774,0-1.093V0.726h0.862v12.902L155.568,13.634z M164.721,13.634v-1.867
	c-0.279,0.613-0.717,1.139-1.266,1.521c-0.546,0.366-1.186,0.561-1.84,0.561c-0.375,0.021-0.75-0.034-1.104-0.164
	c-0.353-0.129-0.676-0.33-0.949-0.59c-0.254-0.234-0.457-0.521-0.596-0.841c-0.138-0.319-0.207-0.665-0.205-1.013
	c0-1.592,1.052-2.558,3.154-2.898l2.797-0.436c0-1.958-0.684-2.947-2.195-2.947c-1.084,0.036-2.118,0.465-2.914,1.21V5.174
	c0.412-0.311,0.875-0.545,1.368-0.692c0.522-0.176,1.07-0.264,1.621-0.263c0.407-0.025,0.815,0.04,1.196,0.191
	c0.38,0.15,0.724,0.383,1.006,0.681c0.551,0.732,0.82,1.642,0.76,2.56v5.99L164.721,13.634z M162.182,9.034
	c-0.712,0.068-1.398,0.305-2.004,0.691c-0.205,0.188-0.365,0.42-0.465,0.682c-0.1,0.26-0.137,0.541-0.109,0.82
	c-0.01,0.256,0.033,0.512,0.127,0.75s0.238,0.455,0.42,0.633c0.417,0.369,0.959,0.56,1.512,0.533
	c0.411,0.005,0.818-0.081,1.193-0.252s0.707-0.422,0.975-0.738c0.596-0.705,0.904-1.612,0.863-2.538v-0.94L162.182,9.034z
	 M171.861,13.481c-0.369,0.201-0.779,0.311-1.197,0.318c-1.368,0-2.053-0.822-2.053-2.441V5.174h-1.572V4.42h1.628V2.027
	l0.403-0.146l0.404-0.145V4.42h2.414v0.754h-2.414v6.067c-0.038,0.482,0.072,0.965,0.314,1.383c0.115,0.152,0.268,0.273,0.443,0.35
	c0.174,0.076,0.365,0.105,0.555,0.086c0.391-0.008,0.771-0.125,1.102-0.338L171.861,13.481z M179.673,13.628v-1.695h-0.048
	c-0.239,0.582-0.648,1.077-1.172,1.418c-0.525,0.342-1.14,0.513-1.763,0.491c-2.155,0-3.229-1.384-3.229-4.108V4.42h0.835v5.098
	c-0.078,0.951,0.133,1.904,0.602,2.732c0.232,0.287,0.529,0.514,0.866,0.66s0.704,0.21,1.069,0.184
	c0.391,0.012,0.777-0.067,1.134-0.23c0.355-0.163,0.669-0.406,0.919-0.711c0.556-0.723,0.835-1.623,0.786-2.538V4.42h0.813v9.208
	H179.673z M187.703,5.271c-0.289-0.197-0.631-0.298-0.978-0.291c-0.372,0.012-0.733,0.123-1.048,0.323
	c-0.315,0.199-0.572,0.479-0.745,0.812c-0.55,0.966-0.808,2.076-0.738,3.189v4.324H183.4V4.42h0.794v2.034h0.048
	c0.153-0.629,0.494-1.194,0.979-1.619c0.427-0.401,0.99-0.619,1.572-0.609c0.312,0.006,0.619,0.064,0.91,0.173V5.271z
	 M189.235,9.062c-0.063,1.055,0.241,2.098,0.862,2.947c0.287,0.355,0.652,0.639,1.066,0.828c0.414,0.188,0.866,0.276,1.32,0.258
	c1.107-0.027,2.172-0.438,3.018-1.162v0.898c-0.922,0.667-2.028,1.023-3.162,1.018c-0.537,0.017-1.072-0.091-1.564-0.313
	c-0.492-0.224-0.927-0.556-1.273-0.974c-0.785-1.025-1.176-2.303-1.102-3.597c-0.041-1.231,0.366-2.434,1.143-3.382
	c0.35-0.445,0.797-0.802,1.307-1.042c0.509-0.24,1.066-0.357,1.628-0.342c0.497-0.03,0.993,0.062,1.446,0.268
	c0.455,0.206,0.853,0.52,1.16,0.916c0.645,0.968,0.963,2.12,0.91,3.285v0.388L189.235,9.062z M195.111,8.287
	c0.021-0.88-0.236-1.744-0.738-2.462c-0.236-0.287-0.531-0.514-0.867-0.665c-0.336-0.151-0.703-0.222-1.069-0.207
	c-0.396-0.014-0.789,0.057-1.155,0.207c-0.367,0.15-0.697,0.377-0.972,0.665c-0.614,0.676-0.976,1.545-1.026,2.462H195.111z"/>
</svg>
